<svg width="129" height="63" viewBox="0 0 129 63" fill="none" xmlns="http://www.w3.org/2000/svg">
<g clip-path="url(#clip0_129_592)">
<path fill-rule="evenodd" clip-rule="evenodd" d="M46.7951 9.27664C61.1735 8.08745 76.8147 10.5053 89.2014 14.7481C101.588 18.9904 110.72 25.0575 116.216 29.9216C121.713 34.7856 123.573 38.4466 124.504 40.2768C125.434 42.1071 125.434 42.1071 125.154 42.7418C124.874 43.3766 124.313 44.6456 115.587 47.3351C106.86 50.0247 89.9671 54.1348 73.1358 53.6555C56.3039 53.1761 39.5326 48.1076 28.2912 43.13C17.0497 38.153 11.3371 33.2673 8.06801 29.9614C4.79894 26.6555 3.97392 24.9293 3.56166 24.0663C3.1489 23.2032 3.1489 23.2032 3.65488 22.6789C4.16035 22.1545 5.17188 21.1053 12.2359 18.1828C19.2999 15.2604 32.4159 10.4647 46.7947 9.27606L46.7951 9.27664Z" fill="#E89D33"/>
<path d="M26.5584 31.2595C25.9166 31.1603 25.3768 30.9161 24.9395 30.5274C24.5022 30.1388 24.1927 29.6348 24.0113 29.017C23.8299 28.3988 23.7977 27.7132 23.9141 26.9601L24.6417 22.2533C24.7563 21.5118 24.9927 20.8764 25.3514 20.3478C25.7101 19.8192 26.1568 19.4357 26.6911 19.1967C27.2253 18.9583 27.8136 18.8884 28.4554 18.9876C29.0973 19.0869 29.637 19.328 30.0751 19.7111C30.5133 20.0942 30.8247 20.5862 31.0087 21.1874C31.1927 21.7881 31.2285 22.4542 31.1157 23.1842C31.1068 23.2414 31.0857 23.2849 31.0533 23.3148C31.0205 23.3446 30.9857 23.3567 30.9491 23.3511L30.2401 23.2939C30.1483 23.2797 30.1105 23.2214 30.1264 23.1186L30.1344 23.0674C30.2596 22.2572 30.1535 21.5776 29.8159 21.0292C29.4784 20.4803 28.9704 20.1537 28.2919 20.0488C27.6135 19.9439 27.0301 20.1049 26.5417 20.5318C26.0534 20.9587 25.7475 21.5715 25.624 22.3702L24.8832 27.1624C24.7597 27.961 24.8663 28.6376 25.203 29.192C25.5396 29.7464 26.0472 30.0761 26.7256 30.181C27.4041 30.2859 27.987 30.1279 28.4745 29.7065C28.962 29.2851 29.2684 28.6693 29.3936 27.8596L29.3988 27.8255C29.4147 27.7226 29.4683 27.6785 29.5601 27.6927L30.2533 27.8522C30.3451 27.8664 30.3829 27.9247 30.367 28.0275C30.2523 28.769 30.0164 29.4014 29.6581 29.9244C29.3003 30.4475 28.8549 30.8255 28.321 31.0584C27.7877 31.2913 27.1998 31.3582 26.5585 31.259L26.5584 31.2595ZM34.95 32.5393C34.2991 32.4387 33.7516 32.1845 33.3079 31.7774C32.8638 31.3697 32.5533 30.8455 32.3754 30.2047C32.1976 29.5639 32.1697 28.8497 32.2914 28.0625L32.9582 23.749C33.0799 22.9618 33.3221 22.2893 33.6852 21.7321C34.0482 21.1749 34.503 20.769 35.049 20.5144C35.5954 20.2604 36.1941 20.1834 36.8444 20.2839C37.4953 20.3845 38.0448 20.639 38.4935 21.0469C38.9421 21.4553 39.2551 21.9798 39.433 22.6207C39.6109 23.2615 39.6387 23.9757 39.517 24.7629L38.8502 29.0764C38.7285 29.8636 38.4864 30.536 38.1233 31.0932C37.7602 31.6504 37.3034 32.056 36.7524 32.3099C36.2015 32.5632 35.6008 32.6399 34.95 32.5393ZM35.1113 31.4952C35.8084 31.603 36.408 31.427 36.9112 30.967C37.4138 30.5074 37.7327 29.8437 37.8668 28.9768L38.5441 24.595C38.6782 23.7276 38.5755 22.9961 38.2354 22.4006C37.8954 21.8046 37.3774 21.4533 36.6803 21.3455C35.9928 21.2392 35.3973 21.4189 34.8933 21.884C34.3893 22.349 34.0704 23.0158 33.9364 23.8827L33.2591 28.2645C33.125 29.1314 33.2282 29.8603 33.5691 30.4504C33.91 31.0404 34.4239 31.389 35.1113 31.4952ZM48.1148 22.3421C48.1325 22.2277 48.1869 22.178 48.2787 22.1922L48.9803 22.3007C49.0721 22.3149 49.1089 22.3791 49.0913 22.493L47.2922 34.1318C47.2745 34.2462 47.2195 34.2957 47.1282 34.2816L46.4407 34.1753C46.3765 34.1654 46.328 34.1168 46.2942 34.0299L43.0731 23.8054C43.0694 23.7699 43.0576 23.7532 43.0386 23.7564C43.0192 23.7591 43.007 23.7777 43.0017 23.8119L41.5574 33.2448C41.5398 33.3592 41.4853 33.4088 41.3935 33.3946L40.6925 33.2862C40.6006 33.272 40.5638 33.2078 40.5814 33.0939L42.3806 21.4551C42.3983 21.3407 42.4527 21.2911 42.5445 21.3053L43.232 21.4116C43.2962 21.4215 43.3452 21.4702 43.3786 21.557L46.5996 31.7815C46.6034 31.817 46.6152 31.8337 46.6347 31.8306C46.6536 31.8278 46.6657 31.8092 46.671 31.775L48.1153 22.3421L48.1148 22.3421ZM52.608 35.2689C51.5722 35.1088 50.7987 34.6913 50.288 34.0165C49.7773 33.3417 49.5972 32.5192 49.7471 31.5494L49.8292 31.0186C49.8468 30.9047 49.9013 30.8546 49.9931 30.8688L50.6671 30.973C50.7589 30.9872 50.7957 31.0514 50.7781 31.1653L50.7067 31.6274C50.6044 32.2891 50.7422 32.8569 51.1192 33.3298C51.4966 33.8032 52.0751 34.0996 52.8544 34.2201C53.5604 34.3292 54.1251 34.2264 54.5492 33.9124C54.9734 33.5983 55.2329 33.133 55.3281 32.5169C55.3898 32.1176 55.3579 31.7623 55.2324 31.4506C55.1069 31.1389 54.8869 30.8306 54.573 30.5247C54.259 30.2194 53.8066 29.8515 53.216 29.4212C52.5814 28.9727 52.0938 28.5902 51.7526 28.2749C51.4119 27.9593 51.1559 27.5812 50.9847 27.1397C50.814 26.6982 50.776 26.1699 50.8713 25.5534C51.0195 24.5946 51.4026 23.8915 52.021 23.4442C52.639 22.9962 53.4161 22.8451 54.351 22.9897C55.3687 23.147 56.1253 23.5675 56.6201 24.2517C57.115 24.9359 57.2869 25.7684 57.1352 26.7497L57.077 27.1265C57.0593 27.2409 57.0049 27.2905 56.913 27.2763L56.2255 27.17C56.1337 27.1559 56.0969 27.0916 56.1145 26.9777L56.1621 26.6697C56.2644 26.0079 56.1394 25.4338 55.7877 24.947C55.436 24.4601 54.8884 24.1597 54.1457 24.0449C53.4949 23.9443 52.9695 24.0326 52.5701 24.3093C52.1707 24.5866 51.922 25.0387 51.8249 25.6664C51.7614 26.0772 51.7938 26.4295 51.9219 26.7241C52.0501 27.0182 52.2568 27.2901 52.5421 27.5386C52.8279 27.7872 53.2755 28.1225 53.8865 28.5437C54.5031 28.9893 54.9921 29.3921 55.3542 29.7522C55.7163 30.1118 55.9905 30.525 56.1763 30.9919C56.3621 31.4588 56.4078 32.0006 56.3125 32.6167C56.1643 33.5754 55.7621 34.2961 55.1054 34.7786C54.4486 35.2612 53.6161 35.4248 52.6075 35.2688L52.608 35.2689ZM61.0245 36.57C60.3827 36.4708 59.8389 36.2228 59.3934 35.8273C58.9475 35.4311 58.6319 34.9236 58.4459 34.3052C58.26 33.6862 58.2261 32.9947 58.3443 32.2301L59.5984 24.1173C59.6161 24.0029 59.6705 23.9532 59.7624 23.9674L60.4634 24.0758C60.5552 24.09 60.5921 24.1542 60.5745 24.2681L59.315 32.4156C59.1897 33.2258 59.2987 33.9172 59.6422 34.4901C59.9853 35.063 60.501 35.4026 61.1885 35.5089C61.876 35.6152 62.4698 35.447 62.9703 35.0046C63.4708 34.5621 63.7835 33.9355 63.9087 33.1257L65.1681 24.9782C65.1858 24.8639 65.2402 24.8142 65.3321 24.8284L66.0336 24.9369C66.1254 24.9511 66.1623 25.0153 66.1447 25.1292L64.8905 33.2421C64.7724 34.0066 64.5333 34.656 64.1737 35.1906C63.8141 35.7247 63.362 36.1135 62.8178 36.3566C62.2731 36.5996 61.6754 36.6706 61.025 36.5701L61.0245 36.57ZM66.9315 37.3429C66.8397 37.3287 66.8029 37.2644 66.8205 37.1505L68.6196 25.5118C68.6373 25.3974 68.6918 25.3478 68.7836 25.362L69.4851 25.4704C69.577 25.4846 69.6138 25.5489 69.5962 25.6627L67.9451 36.3433C67.9381 36.3889 67.9531 36.4149 67.9897 36.4205L72.8443 37.171C72.9362 37.1852 72.973 37.2494 72.9554 37.3633L72.8442 38.0822C72.8266 38.1966 72.7721 38.2463 72.6803 38.2321L66.9319 37.3435L66.9315 37.3429ZM81.0095 27.2514C81.1013 27.2656 81.1382 27.3298 81.1206 27.4437L81.0068 28.1797C80.9891 28.2941 80.9347 28.3437 80.8428 28.3295L78.1476 27.9129C78.1109 27.9072 78.0888 27.9274 78.0817 27.9731L76.4333 38.6365C76.4156 38.7509 76.3612 38.8006 76.2694 38.7864L75.5683 38.678C75.4765 38.6638 75.4397 38.5995 75.4573 38.4857L77.1057 27.8222C77.1128 27.7765 77.0978 27.7506 77.0611 27.7449L74.4757 27.3453C74.3839 27.3311 74.3471 27.2668 74.3647 27.1529L74.4785 26.417C74.4961 26.3026 74.5511 26.253 74.6424 26.2671L81.01 27.2515L81.0095 27.2514ZM83.4684 40.0395C82.8175 39.9388 82.2701 39.6847 81.8264 39.2776C81.3823 38.8699 81.0713 38.3457 80.8934 37.7048C80.7155 37.064 80.6877 36.3498 80.8094 35.5626L81.4762 31.2491C81.5979 30.4619 81.84 29.7894 82.2031 29.2322C82.5662 28.675 83.021 28.2692 83.5674 28.0146C84.1133 27.7605 84.712 27.6835 85.3629 27.7841C86.0137 27.8847 86.5632 28.1392 87.0119 28.5471C87.4606 28.9554 87.7736 29.48 87.9515 30.1208C88.1293 30.7617 88.1576 31.476 88.036 32.2631L87.3692 36.5767C87.2475 37.3638 87.0048 38.0362 86.6417 38.5934C86.2786 39.1506 85.8219 39.5562 85.2709 39.8101C84.7199 40.0634 84.1193 40.1401 83.4684 40.0395ZM83.6298 38.9954C84.3263 39.1031 84.9264 38.9272 85.4291 38.4671C85.9318 38.0075 86.2507 37.3438 86.3847 36.4769L87.0621 32.0951C87.1961 31.2277 87.0934 30.4962 86.7534 29.9007C86.4139 29.3048 85.8953 28.9534 85.1988 28.8457C84.5113 28.7394 83.9157 28.9191 83.4117 29.3841C82.9082 29.8493 82.5894 30.5161 82.4554 31.383L81.778 35.7648C81.644 36.6317 81.7471 37.3606 82.0875 37.9505C82.4284 38.5406 82.9423 38.8892 83.6298 38.9954ZM94.6837 41.6329C94.6014 41.6202 94.5524 41.5715 94.5371 41.4875L93.3355 35.8691C93.3317 35.8335 93.3158 35.8136 93.2887 35.8094L90.9507 35.448C90.9141 35.4423 90.8919 35.4626 90.8849 35.5082L90.0752 40.7459C90.0575 40.8603 90.0031 40.9099 89.9113 40.8957L89.2097 40.7873C89.1179 40.7731 89.0811 40.7088 89.0987 40.5949L90.8979 28.9562C90.9155 28.8418 90.97 28.7921 91.0618 28.8063L94.6237 29.357C95.4121 29.4788 96.0021 29.8829 96.3936 30.568C96.785 31.2537 96.9054 32.087 96.7537 33.0683C96.6302 33.867 96.3511 34.5189 95.9159 35.0243C95.4812 35.5294 94.9534 35.8161 94.3331 35.8836C94.2929 35.901 94.279 35.9276 94.2923 35.9651L95.5403 41.5558C95.5458 41.5802 95.5464 41.6091 95.5411 41.6437C95.5288 41.7235 95.4859 41.758 95.4126 41.7466L94.6835 41.6339L94.6837 41.6329ZM91.7921 30.0052C91.7555 29.9995 91.7334 30.0192 91.7263 30.0648L91.0569 34.3955C91.0498 34.4411 91.0648 34.4671 91.1015 34.4727L93.6593 34.8681C94.1912 34.9503 94.6535 34.8117 95.0472 34.4519C95.4409 34.092 95.6884 33.5812 95.7907 32.9194C95.893 32.2577 95.8112 31.6929 95.5459 31.2255C95.2801 30.758 94.8817 30.4833 94.3498 30.401L91.792 30.0057L91.7921 30.0052ZM97.6268 42.0879C97.535 42.0737 97.4982 42.0094 97.5158 41.8956L99.3149 30.2568C99.3326 30.1424 99.3871 30.0928 99.4789 30.107L100.18 30.2154C100.272 30.2296 100.309 30.2939 100.291 30.4078L98.4923 42.0465C98.4746 42.1609 98.4202 42.2105 98.3284 42.1963L97.6268 42.0879ZM106.758 43.4995C106.676 43.4868 106.628 43.4326 106.615 43.337L106.398 41.0952C106.394 41.0597 106.378 41.0398 106.351 41.0356L102.239 40.3999C102.212 40.3957 102.191 40.4099 102.176 40.4426L101.293 42.5143C101.251 42.6014 101.189 42.6386 101.106 42.6258L100.364 42.511C100.263 42.4954 100.236 42.427 100.283 42.3059L105.124 31.1194C105.166 31.0323 105.228 30.9952 105.311 31.008L106.246 31.1526C106.328 31.1653 106.376 31.2195 106.39 31.315L107.641 43.4433L107.645 43.5137C107.632 43.5935 107.584 43.6272 107.502 43.6145L106.759 43.4996L106.758 43.4995ZM102.626 39.3558C102.613 39.3775 102.612 39.3973 102.623 39.4165C102.634 39.4357 102.649 39.4467 102.667 39.4495L106.215 39.998C106.234 40.0008 106.251 39.9948 106.267 39.9798C106.284 39.965 106.289 39.9452 106.283 39.9212L105.575 32.6613C105.57 32.6368 105.557 32.6236 105.539 32.6208C105.521 32.6179 105.505 32.6274 105.493 32.6485L102.626 39.3558Z" fill="white" stroke="white" stroke-width="0.288416" stroke-miterlimit="22.9256"/>
</g>
<defs>
<clipPath id="clip0_129_592">
<rect width="123.525" height="43.2976" fill="white" transform="translate(6.7973 0.379639) rotate(8.78747)"/>
</clipPath>
</defs>
</svg>
