<svg width="38" height="38" viewBox="0 0 38 38" fill="none" xmlns="http://www.w3.org/2000/svg">
    <g id="lets-icons:message-fill">
        <path id="Vector" fill-rule="evenodd" clip-rule="evenodd"
            d="M6.14175 9.30838C4.75 10.6985 4.75 12.939 4.75 17.4166V20.5833C4.75 25.061 4.75 27.3014 6.14175 28.6915C7.53192 30.0833 9.77233 30.0833 14.25 30.0833H23.75C28.2277 30.0833 30.4681 30.0833 31.8583 28.6915C33.25 27.3014 33.25 25.061 33.25 20.5833V17.4166C33.25 12.939 33.25 10.6985 31.8583 9.30838C30.4681 7.91663 28.2277 7.91663 23.75 7.91663H14.25C9.77233 7.91663 7.53192 7.91663 6.14175 9.30838ZM10.3787 12.9326C10.0294 12.6996 9.60172 12.6148 9.18987 12.6971C8.77803 12.7793 8.41573 13.0218 8.18267 13.3712C7.94961 13.7206 7.86488 14.1482 7.94713 14.5601C8.02938 14.9719 8.27187 15.3342 8.62125 15.5673L17.2441 21.3148C17.7641 21.6613 18.3751 21.8462 19 21.8462C19.6249 21.8462 20.2359 21.6613 20.7559 21.3148L29.3788 15.5673C29.7281 15.3342 29.9706 14.9719 30.0529 14.5601C30.1351 14.1482 30.0504 13.7206 29.8173 13.3712C29.5843 13.0218 29.222 12.7793 28.8101 12.6971C28.3983 12.6148 27.9706 12.6996 27.6213 12.9326L19 18.6801L10.3787 12.9326Z"
            fill="white" />
    </g>
</svg>