<?xml version="1.0" encoding="UTF-8"?>
<!DOCTYPE svg PUBLIC "-//W3C//DTD SVG 1.1//EN" "http://www.w3.org/Graphics/SVG/1.1/DTD/svg11.dtd">
<!-- Creator: CorelDRAW 2021 (64 Bit) -->
<svg xmlns="http://www.w3.org/2000/svg" xml:space="preserve" width="103.104mm" height="53.0805mm" version="1.1" style="shape-rendering:geometricPrecision; text-rendering:geometricPrecision; image-rendering:optimizeQuality; fill-rule:evenodd; clip-rule:evenodd"
viewBox="0 0 16088.4 8282.69"
 xmlns:xlink="http://www.w3.org/1999/xlink"
 xmlns:xodm="http://www.corel.com/coreldraw/odm/2003">
 <defs>
  <style type="text/css">
   <![CDATA[
    .fil0 {fill:white}
   ]]>
  </style>
    <clipPath id="id0">
     <rect width="16088.4" height="8282.69"/>
    </clipPath>
     <clipPath id="id1">
      <rect transform="matrix(-0.73804 -0 -0 0.73804 16088.4 0)" width="21798.82" height="11222.55"/>
     </clipPath>
    <mask id="id2">
     <path fill="black" d="M-1003.56 -4906.2 L17091.74 -4906.42 L17091.96 13188.88 L-1003.34 13189.1 L-1003.56 -4906.2 L-753.3 -4655.99 L16841.51 -4656.18 L16841.7 12938.65 L-753.11 12938.84 L-753.3 -4655.99 L-1003.56 -4906.2z"/>
     <path fill="#020202" d="M-787.94 -4690.62 L16876.16 -4690.8 L16876.34 12973.29 L-787.75 12973.48 L-787.94 -4690.62 L-718.66 -4621.35 L16806.87 -4621.54 L16807.06 12904.01 L-718.47 12904.2 L-718.66 -4621.35 L-787.94 -4690.62z"/>
     <path fill="#030303" d="M-753.3 -4655.97 L16841.51 -4656.16 L16841.7 12938.65 L-753.11 12938.84 L-753.3 -4655.97 L-684.03 -4586.72 L16772.25 -4586.91 L16772.44 12869.39 L-683.85 12869.57 L-684.03 -4586.72 L-753.3 -4655.97z"/>
     <path fill="#050505" d="M-718.67 -4621.35 L16806.89 -4621.54 L16807.08 12904.03 L-718.49 12904.21 L-718.67 -4621.35 L-649.39 -4552.08 L16737.61 -4552.27 L16737.79 12834.75 L-649.21 12834.93 L-649.39 -4552.08 L-718.67 -4621.35z"/>
     <path fill="#070707" d="M-684.03 -4586.71 L16772.25 -4586.9 L16772.44 12869.39 L-683.85 12869.57 L-684.03 -4586.71 L-614.75 -4517.44 L16702.97 -4517.63 L16703.15 12800.1 L-614.56 12800.29 L-614.75 -4517.44 L-684.03 -4586.71z"/>
     <path fill="#080808" d="M-649.39 -4552.07 L16737.61 -4552.25 L16737.79 12834.75 L-649.21 12834.93 L-649.39 -4552.07 L-580.13 -4482.82 L16668.34 -4483 L16668.53 12765.48 L-579.94 12765.67 L-580.13 -4482.82 L-649.39 -4552.07z"/>
     <path fill="#0A0A0A" d="M-614.77 -4517.44 L16702.98 -4517.63 L16703.17 12800.12 L-614.58 12800.31 L-614.77 -4517.44 L-545.49 -4448.18 L16633.7 -4448.36 L16633.89 12730.84 L-545.3 12731.03 L-545.49 -4448.18 L-614.77 -4517.44z"/>
     <path fill="#0C0C0C" d="M-580.13 -4482.8 L16668.34 -4482.99 L16668.53 12765.48 L-579.94 12765.67 L-580.13 -4482.8 L-510.84 -4413.54 L16599.06 -4413.72 L16599.25 12696.2 L-510.66 12696.38 L-510.84 -4413.54 L-580.13 -4482.8z"/>
     <path fill="#0D0D0D" d="M-545.49 -4448.16 L16633.7 -4448.35 L16633.89 12730.84 L-545.3 12731.03 L-545.49 -4448.16 L-476.22 -4378.91 L16564.43 -4379.1 L16564.62 12661.57 L-476.03 12661.76 L-476.22 -4378.91 L-545.49 -4448.16z"/>
     <path fill="#0F0F0F" d="M-510.86 -4413.54 L16599.07 -4413.72 L16599.26 12696.21 L-510.67 12696.4 L-510.86 -4413.54 L-441.58 -4344.27 L16529.79 -4344.46 L16529.98 12626.93 L-441.39 12627.12 L-441.58 -4344.27 L-510.86 -4413.54z"/>
     <path fill="#111111" d="M-476.22 -4378.89 L16564.43 -4379.08 L16564.62 12661.57 L-476.03 12661.76 L-476.22 -4378.89 L-406.94 -4309.63 L16495.15 -4309.82 L16495.34 12592.29 L-406.75 12592.48 L-406.94 -4309.63 L-476.22 -4378.89z"/>
     <path fill="#121212" d="M-441.58 -4344.25 L16529.79 -4344.44 L16529.98 12626.93 L-441.39 12627.12 L-441.58 -4344.25 L-372.31 -4275 L16460.53 -4275.19 L16460.71 12557.66 L-372.12 12557.85 L-372.31 -4275 L-441.58 -4344.25z"/>
     <path fill="#141414" d="M-406.95 -4309.63 L16495.17 -4309.82 L16495.36 12592.31 L-406.77 12592.49 L-406.95 -4309.63 L-337.67 -4240.36 L16425.89 -4240.55 L16426.07 12523.02 L-337.48 12523.21 L-337.67 -4240.36 L-406.95 -4309.63z"/>
     <path fill="#161616" d="M-372.31 -4274.99 L16460.53 -4275.17 L16460.71 12557.66 L-372.12 12557.85 L-372.31 -4274.99 L-303.03 -4205.72 L16391.24 -4205.91 L16391.43 12488.38 L-302.84 12488.57 L-303.03 -4205.72 L-372.31 -4274.99z"/>
     <path fill="#171717" d="M-337.67 -4240.35 L16425.89 -4240.53 L16426.07 12523.02 L-337.48 12523.21 L-337.67 -4240.35 L-268.4 -4171.1 L16356.62 -4171.28 L16356.81 12453.76 L-268.22 12453.94 L-268.4 -4171.1 L-337.67 -4240.35z"/>
     <path fill="#191919" d="M-303.05 -4205.72 L16391.26 -4205.91 L16391.45 12488.4 L-302.86 12488.59 L-303.05 -4205.72 L-233.76 -4136.45 L16321.98 -4136.64 L16322.17 12419.12 L-233.58 12419.3 L-233.76 -4136.45 L-303.05 -4205.72z"/>
     <path fill="#1B1B1B" d="M-268.4 -4171.08 L16356.62 -4171.27 L16356.81 12453.76 L-268.22 12453.94 L-268.4 -4171.08 L-199.12 -4101.81 L16287.34 -4102 L16287.53 12384.48 L-198.94 12384.66 L-199.12 -4101.81 L-268.4 -4171.08z"/>
     <path fill="#1C1C1C" d="M-233.76 -4136.44 L16321.98 -4136.63 L16322.17 12419.12 L-233.58 12419.3 L-233.76 -4136.44 L-164.5 -4067.19 L16252.71 -4067.38 L16252.9 12349.85 L-164.31 12350.04 L-164.5 -4067.19 L-233.76 -4136.44z"/>
     <path fill="#1E1E1E" d="M-199.14 -4101.81 L16287.35 -4102 L16287.54 12384.49 L-198.95 12384.68 L-199.14 -4101.81 L-129.86 -4032.55 L16218.07 -4032.73 L16218.26 12315.21 L-129.67 12315.4 L-129.86 -4032.55 L-199.14 -4101.81z"/>
     <path fill="#202020" d="M-164.5 -4067.17 L16252.71 -4067.36 L16252.9 12349.85 L-164.31 12350.04 L-164.5 -4067.17 L-95.22 -3997.91 L16183.43 -3998.09 L16183.62 12280.57 L-95.03 12280.76 L-95.22 -3997.91 L-164.5 -4067.17z"/>
     <path fill="#212121" d="M-129.86 -4032.53 L16218.07 -4032.72 L16218.26 12315.21 L-129.67 12315.4 L-129.86 -4032.53 L-60.59 -3963.28 L16148.81 -3963.47 L16148.99 12245.94 L-60.4 12246.13 L-60.59 -3963.28 L-129.86 -4032.53z"/>
     <path fill="#232323" d="M-95.23 -3997.91 L16183.45 -3998.09 L16183.63 12280.58 L-95.04 12280.77 L-95.23 -3997.91 L-25.95 -3928.64 L16114.16 -3928.83 L16114.35 12211.3 L-25.76 12211.49 L-25.95 -3928.64 L-95.23 -3997.91z"/>
     <path fill="#252525" d="M-60.59 -3963.27 L16148.81 -3963.45 L16148.99 12245.94 L-60.4 12246.13 L-60.59 -3963.27 L8.69 -3894 L16079.52 -3894.19 L16079.71 12176.66 L8.88 12176.85 L8.69 -3894 L-60.59 -3963.27z"/>
     <path fill="#262626" d="M-25.95 -3928.62 L16114.16 -3928.81 L16114.35 12211.3 L-25.76 12211.49 L-25.95 -3928.62 L43.32 -3859.37 L16044.9 -3859.56 L16045.09 12142.04 L43.5 12142.22 L43.32 -3859.37 L-25.95 -3928.62z"/>
     <path fill="#282828" d="M8.68 -3894 L16079.54 -3894.19 L16079.73 12176.68 L8.86 12176.86 L8.68 -3894 L77.96 -3824.73 L16010.26 -3824.92 L16010.44 12107.39 L78.14 12107.58 L77.96 -3824.73 L8.68 -3894z"/>
     <path fill="#2A2A2A" d="M43.32 -3859.36 L16044.9 -3859.55 L16045.09 12142.04 L43.5 12142.22 L43.32 -3859.36 L112.58 -3790.11 L15975.63 -3790.29 L15975.82 12072.77 L112.77 12072.96 L112.58 -3790.11 L43.32 -3859.36z"/>
     <path fill="#2B2B2B" d="M77.94 -3824.73 L16010.27 -3824.92 L16010.46 12107.41 L78.13 12107.6 L77.94 -3824.73 L147.22 -3755.47 L15940.99 -3755.65 L15941.18 12038.13 L147.41 12038.32 L147.22 -3755.47 L77.94 -3824.73z"/>
     <path fill="#2D2D2D" d="M112.58 -3790.09 L15975.63 -3790.28 L15975.82 12072.77 L112.77 12072.96 L112.58 -3790.09 L181.86 -3720.83 L15906.35 -3721.01 L15906.54 12003.49 L182.05 12003.67 L181.86 -3720.83 L112.58 -3790.09z"/>
     <path fill="#2F2F2F" d="M147.22 -3755.45 L15940.99 -3755.64 L15941.18 12038.13 L147.41 12038.32 L147.22 -3755.45 L216.49 -3686.2 L15871.72 -3686.39 L15871.91 11968.86 L216.68 11969.05 L216.49 -3686.2 L147.22 -3755.45z"/>
     <path fill="#303030" d="M181.85 -3720.83 L15906.37 -3721.01 L15906.55 12003.5 L182.04 12003.69 L181.85 -3720.83 L251.13 -3651.56 L15837.08 -3651.75 L15837.27 11934.22 L251.32 11934.41 L251.13 -3651.56 L181.85 -3720.83z"/>
     <path fill="#323232" d="M216.49 -3686.18 L15871.72 -3686.37 L15871.91 11968.86 L216.68 11969.05 L216.49 -3686.18 L285.77 -3616.92 L15802.44 -3617.11 L15802.63 11899.58 L285.96 11899.77 L285.77 -3616.92 L216.49 -3686.18z"/>
     <path fill="#343434" d="M251.13 -3651.54 L15837.08 -3651.73 L15837.27 11934.22 L251.32 11934.41 L251.13 -3651.54 L320.4 -3582.29 L15767.82 -3582.48 L15768 11864.96 L320.58 11865.14 L320.4 -3582.29 L251.13 -3651.54z"/>
     <path fill="#353535" d="M285.76 -3616.92 L15802.46 -3617.11 L15802.65 11899.6 L285.94 11899.78 L285.76 -3616.92 L355.04 -3547.65 L15733.18 -3547.84 L15733.36 11830.31 L355.23 11830.5 L355.04 -3547.65 L285.76 -3616.92z"/>
     <path fill="#373737" d="M320.4 -3582.28 L15767.82 -3582.47 L15768 11864.96 L320.58 11865.14 L320.4 -3582.28 L389.68 -3513.01 L15698.54 -3513.2 L15698.72 11795.67 L389.87 11795.86 L389.68 -3513.01 L320.4 -3582.28z"/>
     <path fill="#393939" d="M355.04 -3547.64 L15733.18 -3547.82 L15733.36 11830.31 L355.23 11830.5 L355.04 -3547.64 L424.3 -3478.39 L15663.91 -3478.57 L15664.1 11761.05 L424.49 11761.24 L424.3 -3478.39 L355.04 -3547.64z"/>
     <path fill="#3A3A3A" d="M389.66 -3513.01 L15698.55 -3513.2 L15698.74 11795.69 L389.85 11795.88 L389.66 -3513.01 L458.95 -3443.75 L15629.27 -3443.93 L15629.46 11726.41 L459.13 11726.59 L458.95 -3443.75 L389.66 -3513.01z"/>
     <path fill="#3C3C3C" d="M424.3 -3478.37 L15663.91 -3478.56 L15664.1 11761.05 L424.49 11761.24 L424.3 -3478.37 L493.59 -3409.1 L15594.63 -3409.29 L15594.82 11691.77 L493.77 11691.95 L493.59 -3409.1 L424.3 -3478.37z"/>
     <path fill="#3E3E3E" d="M458.95 -3443.73 L15629.27 -3443.92 L15629.46 11726.41 L459.13 11726.59 L458.95 -3443.73 L528.23 -3374.49 L15560.02 -3374.65 L15560.17 11657.16 L528.38 11657.31 L528.23 -3374.49 L458.95 -3443.73z"/>
     <path fill="#3F3F3F" d="M493.57 -3409.1 L15594.64 -3409.29 L15594.83 11691.78 L493.76 11691.97 L493.57 -3409.1 L562.87 -3339.85 L15525.38 -3340.01 L15525.53 11622.52 L563.02 11622.67 L562.87 -3339.85 L493.57 -3409.1z"/>
     <path fill="#414141" d="M528.23 -3374.48 L15560.02 -3374.64 L15560.17 11657.16 L528.38 11657.31 L528.23 -3374.48 L597.51 -3305.21 L15490.74 -3305.37 L15490.89 11587.87 L597.67 11588.03 L597.51 -3305.21 L528.23 -3374.48z"/>
     <path fill="#434343" d="M562.87 -3339.84 L15525.38 -3339.99 L15525.53 11622.52 L563.02 11622.67 L562.87 -3339.84 L632.13 -3270.59 L15456.11 -3270.74 L15456.27 11553.25 L632.29 11553.41 L632.13 -3270.59 L562.87 -3339.84z"/>
     <path fill="#444444" d="M597.49 -3305.21 L15490.75 -3305.37 L15490.91 11587.89 L597.65 11588.05 L597.49 -3305.21 L666.78 -3235.95 L15421.47 -3236.1 L15421.63 11518.61 L666.93 11518.76 L666.78 -3235.95 L597.49 -3305.21z"/>
     <path fill="#464646" d="M632.13 -3270.57 L15456.11 -3270.73 L15456.27 11553.25 L632.29 11553.41 L632.13 -3270.57 L701.42 -3201.31 L15386.83 -3201.46 L15386.99 11483.97 L701.57 11484.12 L701.42 -3201.31 L632.13 -3270.57z"/>
     <path fill="#484848" d="M666.78 -3235.93 L15421.47 -3236.09 L15421.63 11518.61 L666.93 11518.76 L666.78 -3235.93 L736.04 -3166.68 L15352.2 -3166.84 L15352.36 11449.34 L736.2 11449.5 L736.04 -3166.68 L666.78 -3235.93z"/>
     <path fill="#494949" d="M701.4 -3201.31 L15386.85 -3201.46 L15387 11483.98 L701.56 11484.14 L701.4 -3201.31 L770.68 -3132.04 L15317.56 -3132.2 L15317.72 11414.7 L770.84 11414.86 L770.68 -3132.04 L701.4 -3201.31z"/>
     <path fill="#4B4B4B" d="M736.04 -3166.66 L15352.2 -3166.82 L15352.36 11449.34 L736.2 11449.5 L736.04 -3166.66 L805.32 -3097.4 L15282.92 -3097.55 L15283.08 11380.06 L805.48 11380.22 L805.32 -3097.4 L736.04 -3166.66z"/>
     <path fill="#4D4D4D" d="M770.68 -3132.02 L15317.56 -3132.18 L15317.72 11414.7 L770.84 11414.86 L770.68 -3132.02 L839.95 -3062.77 L15248.3 -3062.93 L15248.45 11345.43 L840.1 11345.59 L839.95 -3062.77 L770.68 -3132.02z"/>
     <path fill="#4E4E4E" d="M805.31 -3097.4 L15282.94 -3097.55 L15283.09 11380.08 L805.46 11380.23 L805.31 -3097.4 L874.59 -3028.13 L15213.66 -3028.29 L15213.81 11310.79 L874.75 11310.95 L874.59 -3028.13 L805.31 -3097.4z"/>
     <path fill="#505050" d="M839.95 -3062.76 L15248.3 -3062.91 L15248.45 11345.43 L840.1 11345.59 L839.95 -3062.76 L909.22 -2993.51 L15179.03 -2993.66 L15179.19 11276.17 L909.37 11276.32 L909.22 -2993.51 L839.95 -3062.76z"/>
     <path fill="#525252" d="M874.57 -3028.13 L15213.67 -3028.29 L15213.83 11310.81 L874.73 11310.97 L874.57 -3028.13 L943.86 -2958.87 L15144.39 -2959.02 L15144.55 11241.53 L944.01 11241.68 L943.86 -2958.87 L874.57 -3028.13z"/>
     <path fill="#535353" d="M909.22 -2993.49 L15179.03 -2993.65 L15179.19 11276.17 L909.37 11276.32 L909.22 -2993.49 L978.5 -2924.22 L15109.75 -2924.38 L15109.91 11206.89 L978.65 11207.04 L978.5 -2924.22 L909.22 -2993.49z"/>
     <path fill="#555555" d="M943.86 -2958.85 L15144.39 -2959.01 L15144.55 11241.53 L944.01 11241.68 L943.86 -2958.85 L1013.12 -2889.6 L15075.12 -2889.76 L15075.28 11172.26 L1013.28 11172.42 L1013.12 -2889.6 L943.86 -2958.85z"/>
     <path fill="#575757" d="M978.48 -2924.22 L15109.76 -2924.38 L15109.92 11206.9 L978.64 11207.06 L978.48 -2924.22 L1047.76 -2854.96 L15040.48 -2855.11 L15040.64 11137.62 L1047.92 11137.78 L1047.76 -2854.96 L978.48 -2924.22z"/>
     <path fill="#585858" d="M1013.12 -2889.58 L15075.12 -2889.74 L15075.28 11172.26 L1013.28 11172.42 L1013.12 -2889.58 L1082.4 -2820.32 L15005.84 -2820.47 L15006 11102.98 L1082.56 11103.14 L1082.4 -2820.32 L1013.12 -2889.58z"/>
     <path fill="#5A5A5A" d="M1047.76 -2854.94 L15040.48 -2855.1 L15040.64 11137.62 L1047.92 11137.78 L1047.76 -2854.94 L1117.03 -2785.69 L14971.22 -2785.85 L14971.37 11068.35 L1117.19 11068.51 L1117.03 -2785.69 L1047.76 -2854.94z"/>
     <path fill="#5C5C5C" d="M1082.39 -2820.32 L15005.86 -2820.47 L15006.01 11103 L1082.54 11103.15 L1082.39 -2820.32 L1151.67 -2751.05 L14936.58 -2751.21 L14936.73 11033.71 L1151.83 11033.87 L1151.67 -2751.05 L1082.39 -2820.32z"/>
     <path fill="#5D5D5D" d="M1117.03 -2785.68 L14971.22 -2785.83 L14971.37 11068.35 L1117.19 11068.51 L1117.03 -2785.68 L1186.31 -2716.41 L14901.93 -2716.57 L14902.09 10999.07 L1186.47 10999.23 L1186.31 -2716.41 L1117.03 -2785.68z"/>
     <path fill="#5F5F5F" d="M1151.67 -2751.04 L14936.58 -2751.19 L14936.73 11033.71 L1151.83 11033.87 L1151.67 -2751.04 L1220.94 -2681.79 L14867.31 -2681.94 L14867.47 10964.45 L1221.09 10964.6 L1220.94 -2681.79 L1151.67 -2751.04z"/>
     <path fill="#616161" d="M1186.3 -2716.41 L14901.95 -2716.57 L14902.11 10999.09 L1186.45 10999.24 L1186.3 -2716.41 L1255.58 -2647.14 L14832.67 -2647.3 L14832.82 10929.81 L1255.73 10929.96 L1255.58 -2647.14 L1186.3 -2716.41z"/>
     <path fill="#626262" d="M1220.94 -2681.77 L14867.31 -2681.93 L14867.47 10964.45 L1221.09 10964.6 L1220.94 -2681.77 L1290.22 -2612.5 L14798.03 -2612.66 L14798.18 10895.17 L1290.37 10895.32 L1290.22 -2612.5 L1220.94 -2681.77z"/>
     <path fill="#646464" d="M1255.58 -2647.13 L14832.67 -2647.28 L14832.82 10929.81 L1255.73 10929.96 L1255.58 -2647.13 L1324.84 -2577.88 L14763.4 -2578.03 L14763.56 10860.54 L1325 10860.7 L1324.84 -2577.88 L1255.58 -2647.13z"/>
     <path fill="#666666" d="M1290.2 -2612.5 L14798.04 -2612.66 L14798.2 10895.18 L1290.36 10895.34 L1290.2 -2612.5 L1359.48 -2543.24 L14728.76 -2543.39 L14728.92 10825.9 L1359.64 10826.05 L1359.48 -2543.24 L1290.2 -2612.5z"/>
     <path fill="#676767" d="M1324.84 -2577.86 L14763.4 -2578.02 L14763.56 10860.54 L1325 10860.7 L1324.84 -2577.86 L1394.13 -2508.6 L14694.12 -2508.75 L14694.28 10791.26 L1394.28 10791.41 L1394.13 -2508.6 L1324.84 -2577.86z"/>
     <path fill="dimgray" d="M1359.48 -2543.22 L14728.76 -2543.38 L14728.92 10825.9 L1359.64 10826.05 L1359.48 -2543.22 L1428.75 -2473.97 L14659.5 -2474.13 L14659.65 10756.63 L1428.91 10756.79 L1428.75 -2473.97 L1359.48 -2543.22z"/>
     <path fill="#6B6B6B" d="M1394.11 -2508.6 L14694.14 -2508.75 L14694.29 10791.27 L1394.27 10791.43 L1394.11 -2508.6 L1463.39 -2439.33 L14624.85 -2439.49 L14625.01 10721.99 L1463.55 10722.15 L1463.39 -2439.33 L1394.11 -2508.6z"/>
     <path fill="#6C6C6C" d="M1428.75 -2473.96 L14659.5 -2474.11 L14659.65 10756.63 L1428.91 10756.79 L1428.75 -2473.96 L1498.03 -2404.69 L14590.21 -2404.85 L14590.37 10687.35 L1498.19 10687.51 L1498.03 -2404.69 L1428.75 -2473.96z"/>
     <path fill="#6E6E6E" d="M1463.39 -2439.31 L14624.85 -2439.47 L14625.01 10721.99 L1463.55 10722.15 L1463.39 -2439.31 L1532.66 -2370.06 L14555.59 -2370.22 L14555.74 10652.73 L1532.81 10652.88 L1532.66 -2370.06 L1463.39 -2439.31z"/>
     <path fill="#707070" d="M1498.02 -2404.69 L14590.23 -2404.85 L14590.38 10687.37 L1498.17 10687.52 L1498.02 -2404.69 L1567.3 -2335.42 L14520.95 -2335.58 L14521.1 10618.08 L1567.46 10618.24 L1567.3 -2335.42 L1498.02 -2404.69z"/>
     <path fill="#717171" d="M1532.66 -2370.05 L14555.59 -2370.2 L14555.74 10652.73 L1532.81 10652.88 L1532.66 -2370.05 L1601.94 -2300.78 L14486.31 -2300.94 L14486.46 10583.44 L1602.1 10583.6 L1601.94 -2300.78 L1532.66 -2370.05z"/>
     <path fill="#737373" d="M1567.3 -2335.41 L14520.95 -2335.56 L14521.1 10618.08 L1567.46 10618.24 L1567.3 -2335.41 L1636.57 -2266.16 L14451.68 -2266.31 L14451.84 10548.82 L1636.72 10548.97 L1636.57 -2266.16 L1567.3 -2335.41z"/>
     <path fill="#757575" d="M1601.92 -2300.78 L14486.32 -2300.94 L14486.48 10583.46 L1602.08 10583.62 L1601.92 -2300.78 L1671.21 -2231.52 L14417.04 -2231.67 L14417.2 10514.18 L1671.36 10514.33 L1671.21 -2231.52 L1601.92 -2300.78z"/>
     <path fill="#767676" d="M1636.57 -2266.14 L14451.68 -2266.3 L14451.84 10548.82 L1636.72 10548.97 L1636.57 -2266.14 L1705.83 -2196.89 L14382.41 -2197.05 L14382.57 10479.55 L1705.99 10479.71 L1705.83 -2196.89 L1636.57 -2266.14z"/>
     <path fill="#787878" d="M1671.19 -2231.52 L14417.06 -2231.67 L14417.21 10514.19 L1671.35 10514.35 L1671.19 -2231.52 L1740.47 -2162.25 L14347.77 -2162.41 L14347.93 10444.91 L1740.63 10445.07 L1740.47 -2162.25 L1671.19 -2231.52z"/>
     <path fill="#7A7A7A" d="M1705.83 -2196.87 L14382.41 -2197.03 L14382.57 10479.55 L1705.99 10479.71 L1705.83 -2196.87 L1775.11 -2127.61 L14313.13 -2127.76 L14313.29 10410.27 L1775.27 10410.43 L1775.11 -2127.61 L1705.83 -2196.87z"/>
     <path fill="#7B7B7B" d="M1740.47 -2162.23 L14347.77 -2162.39 L14347.93 10444.91 L1740.63 10445.07 L1740.47 -2162.23 L1809.74 -2092.98 L14278.51 -2093.14 L14278.66 10375.64 L1809.89 10375.8 L1809.74 -2092.98 L1740.47 -2162.23z"/>
     <path fill="#7D7D7D" d="M1775.1 -2127.61 L14313.15 -2127.76 L14313.3 10410.29 L1775.25 10410.44 L1775.1 -2127.61 L1844.38 -2058.34 L14243.87 -2058.5 L14244.02 10341 L1844.54 10341.16 L1844.38 -2058.34 L1775.1 -2127.61z"/>
     <path fill="#7F7F7F" d="M1809.74 -2092.97 L14278.51 -2093.12 L14278.66 10375.64 L1809.89 10375.8 L1809.74 -2092.97 L1879.02 -2023.7 L14209.23 -2023.86 L14209.38 10306.36 L1879.18 10306.52 L1879.02 -2023.7 L1809.74 -2092.97z"/>
     <path fill="gray" d="M1844.38 -2058.33 L14243.87 -2058.48 L14244.02 10341 L1844.54 10341.16 L1844.38 -2058.33 L1913.66 -1989.09 L14174.62 -1989.22 L14174.74 10271.75 L1913.79 10271.88 L1913.66 -1989.09 L1844.38 -2058.33z"/>
     <path fill="#818181" d="M1879.01 -2023.7 L14209.24 -2023.86 L14209.4 10306.38 L1879.16 10306.53 L1879.01 -2023.7 L1948.3 -1954.45 L14139.97 -1954.58 L14140.1 10237.11 L1948.43 10237.24 L1948.3 -1954.45 L1879.01 -2023.7z"/>
     <path fill="#818181" d="M1913.66 -1989.08 L14174.62 -1989.2 L14174.74 10271.75 L1913.79 10271.88 L1913.66 -1989.08 L1982.94 -1919.81 L14105.33 -1919.93 L14105.46 10202.47 L1983.07 10202.6 L1982.94 -1919.81 L1913.66 -1989.08z"/>
     <path fill="#828282" d="M1948.3 -1954.43 L14139.97 -1954.56 L14140.1 10237.11 L1948.43 10237.24 L1948.3 -1954.43 L2017.57 -1885.18 L14070.71 -1885.31 L14070.83 10167.85 L2017.69 10167.97 L2017.57 -1885.18 L1948.3 -1954.43z"/>
     <path fill="#838383" d="M1982.93 -1919.81 L14105.35 -1919.93 L14105.47 10202.49 L1983.05 10202.61 L1982.93 -1919.81 L2052.21 -1850.54 L14036.07 -1850.67 L14036.19 10133.21 L2052.33 10133.33 L2052.21 -1850.54 L1982.93 -1919.81z"/>
     <path fill="#838383" d="M2017.57 -1885.17 L14070.71 -1885.29 L14070.83 10167.85 L2017.69 10167.97 L2017.57 -1885.17 L2086.85 -1815.9 L14001.43 -1816.03 L14001.55 10098.56 L2086.98 10098.69 L2086.85 -1815.9 L2017.57 -1885.17z"/>
     <path fill="#848484" d="M2052.21 -1850.53 L14036.07 -1850.65 L14036.19 10133.21 L2052.33 10133.33 L2052.21 -1850.53 L2121.48 -1781.28 L13966.8 -1781.4 L13966.93 10063.94 L2121.6 10064.06 L2121.48 -1781.28 L2052.21 -1850.53z"/>
     <path fill="#858585" d="M2086.84 -1815.9 L14001.44 -1816.03 L14001.57 10098.58 L2086.96 10098.7 L2086.84 -1815.9 L2156.12 -1746.64 L13932.16 -1746.76 L13932.29 10029.3 L2156.24 10029.42 L2156.12 -1746.64 L2086.84 -1815.9z"/>
     <path fill="#868686" d="M2121.48 -1781.26 L13966.8 -1781.39 L13966.93 10063.94 L2121.6 10064.06 L2121.48 -1781.26 L2190.76 -1712 L13897.52 -1712.12 L13897.64 9994.66 L2190.88 9994.78 L2190.76 -1712 L2121.48 -1781.26z"/>
     <path fill="#868686" d="M2156.12 -1746.62 L13932.16 -1746.75 L13932.29 10029.3 L2156.24 10029.42 L2156.12 -1746.62 L2225.38 -1677.37 L13862.89 -1677.49 L13863.02 9960.03 L2225.51 9960.16 L2225.38 -1677.37 L2156.12 -1746.62z"/>
     <path fill="#878787" d="M2190.74 -1712 L13897.54 -1712.12 L13897.66 9994.67 L2190.87 9994.8 L2190.74 -1712 L2260.02 -1642.73 L13828.25 -1642.85 L13828.38 9925.39 L2260.15 9925.52 L2260.02 -1642.73 L2190.74 -1712z"/>
     <path fill="#888888" d="M2225.38 -1677.35 L13862.89 -1677.48 L13863.02 9960.03 L2225.51 9960.16 L2225.38 -1677.35 L2294.67 -1608.09 L13793.61 -1608.21 L13793.74 9890.75 L2294.79 9890.87 L2294.67 -1608.09 L2225.38 -1677.35z"/>
     <path fill="#888888" d="M2260.02 -1642.71 L13828.25 -1642.84 L13828.38 9925.39 L2260.15 9925.52 L2260.02 -1642.71 L2329.29 -1573.46 L13758.99 -1573.59 L13759.11 9856.12 L2329.42 9856.25 L2329.29 -1573.46 L2260.02 -1642.71z"/>
     <path fill="#898989" d="M2294.65 -1608.09 L13793.63 -1608.21 L13793.75 9890.77 L2294.77 9890.89 L2294.65 -1608.09 L2363.93 -1538.82 L13724.35 -1538.95 L13724.47 9821.48 L2364.06 9821.61 L2363.93 -1538.82 L2294.65 -1608.09z"/>
     <path fill="#8A8A8A" d="M2329.29 -1573.45 L13758.99 -1573.57 L13759.11 9856.12 L2329.42 9856.25 L2329.29 -1573.45 L2398.57 -1504.18 L13689.71 -1504.31 L13689.83 9786.84 L2398.7 9786.97 L2398.57 -1504.18 L2329.29 -1573.45z"/>
     <path fill="#8B8B8B" d="M2363.93 -1538.81 L13724.35 -1538.93 L13724.47 9821.48 L2364.06 9821.61 L2363.93 -1538.81 L2433.2 -1469.56 L13655.08 -1469.68 L13655.2 9752.22 L2433.32 9752.34 L2433.2 -1469.56 L2363.93 -1538.81z"/>
     <path fill="#8B8B8B" d="M2398.56 -1504.18 L13689.72 -1504.31 L13689.85 9786.86 L2398.68 9786.98 L2398.56 -1504.18 L2467.84 -1434.91 L13620.44 -1435.04 L13620.56 9717.58 L2467.96 9717.7 L2467.84 -1434.91 L2398.56 -1504.18z"/>
     <path fill="#8C8C8C" d="M2433.2 -1469.54 L13655.08 -1469.66 L13655.2 9752.22 L2433.32 9752.34 L2433.2 -1469.54 L2502.46 -1400.29 L13585.81 -1400.41 L13585.94 9682.95 L2502.59 9683.08 L2502.46 -1400.29 L2433.2 -1469.54z"/>
     <path fill="#8D8D8D" d="M2467.82 -1434.91 L13620.45 -1435.04 L13620.58 9717.59 L2467.95 9717.72 L2467.82 -1434.91 L2537.1 -1365.65 L13551.17 -1365.77 L13551.3 9648.31 L2537.23 9648.43 L2537.1 -1365.65 L2467.82 -1434.91z"/>
     <path fill="#8D8D8D" d="M2502.46 -1400.27 L13585.81 -1400.4 L13585.94 9682.95 L2502.59 9683.08 L2502.46 -1400.27 L2571.75 -1331.01 L13516.53 -1331.13 L13516.66 9613.67 L2571.87 9613.79 L2571.75 -1331.01 L2502.46 -1400.27z"/>
     <path fill="#8E8E8E" d="M2537.1 -1365.63 L13551.17 -1365.76 L13551.3 9648.31 L2537.23 9648.43 L2537.1 -1365.63 L2606.37 -1296.38 L13481.91 -1296.51 L13482.03 9579.04 L2606.5 9579.17 L2606.37 -1296.38 L2537.1 -1365.63z"/>
     <path fill="#8F8F8F" d="M2571.73 -1331.01 L13516.55 -1331.13 L13516.67 9613.68 L2571.85 9613.81 L2571.73 -1331.01 L2641.01 -1261.74 L13447.27 -1261.87 L13447.39 9544.4 L2641.14 9544.53 L2641.01 -1261.74 L2571.73 -1331.01z"/>
     <path fill="#909090" d="M2606.37 -1296.37 L13481.91 -1296.49 L13482.03 9579.04 L2606.5 9579.17 L2606.37 -1296.37 L2675.65 -1227.1 L13412.62 -1227.23 L13412.75 9509.76 L2675.78 9509.89 L2675.65 -1227.1 L2606.37 -1296.37z"/>
     <path fill="#909090" d="M2641.01 -1261.73 L13447.27 -1261.85 L13447.39 9544.4 L2641.14 9544.53 L2641.01 -1261.73 L2710.28 -1192.47 L13378 -1192.6 L13378.12 9475.14 L2710.4 9475.26 L2710.28 -1192.47 L2641.01 -1261.73z"/>
     <path fill="#919191" d="M2675.64 -1227.1 L13412.64 -1227.23 L13412.76 9509.78 L2675.76 9509.9 L2675.64 -1227.1 L2744.92 -1157.83 L13343.36 -1157.96 L13343.48 9440.5 L2745.04 9440.62 L2744.92 -1157.83 L2675.64 -1227.1z"/>
     <path fill="#929292" d="M2710.28 -1192.46 L13378 -1192.58 L13378.12 9475.14 L2710.4 9475.26 L2710.28 -1192.46 L2779.56 -1123.19 L13308.72 -1123.32 L13308.84 9405.85 L2779.68 9405.98 L2779.56 -1123.19 L2710.28 -1192.46z"/>
     <path fill="#929292" d="M2744.92 -1157.82 L13343.36 -1157.94 L13343.48 9440.5 L2745.04 9440.62 L2744.92 -1157.82 L2814.19 -1088.57 L13274.09 -1088.69 L13274.22 9371.23 L2814.31 9371.35 L2814.19 -1088.57 L2744.92 -1157.82z"/>
     <path fill="#939393" d="M2779.54 -1123.19 L13308.73 -1123.32 L13308.86 9405.87 L2779.67 9406 L2779.54 -1123.19 L2848.83 -1053.93 L13239.45 -1054.05 L13239.58 9336.59 L2848.95 9336.71 L2848.83 -1053.93 L2779.54 -1123.19z"/>
     <path fill="#949494" d="M2814.19 -1088.55 L13274.09 -1088.68 L13274.22 9371.23 L2814.31 9371.35 L2814.19 -1088.55 L2883.47 -1019.29 L13204.81 -1019.41 L13204.93 9301.95 L2883.59 9302.07 L2883.47 -1019.29 L2814.19 -1088.55z"/>
     <path fill="#959595" d="M2848.83 -1053.91 L13239.45 -1054.04 L13239.58 9336.59 L2848.95 9336.71 L2848.83 -1053.91 L2918.09 -984.66 L13170.18 -984.79 L13170.31 9267.32 L2918.22 9267.45 L2918.09 -984.66 L2848.83 -1053.91z"/>
     <path fill="#959595" d="M2883.45 -1019.29 L13204.83 -1019.41 L13204.95 9301.96 L2883.58 9302.09 L2883.45 -1019.29 L2952.73 -950.02 L13135.54 -950.14 L13135.67 9232.68 L2952.86 9232.81 L2952.73 -950.02 L2883.45 -1019.29z"/>
     <path fill="#969696" d="M2918.09 -984.65 L13170.18 -984.77 L13170.31 9267.32 L2918.22 9267.45 L2918.09 -984.65 L2987.37 -915.38 L13100.9 -915.5 L13101.03 9198.04 L2987.5 9198.17 L2987.37 -915.38 L2918.09 -984.65z"/>
     <path fill="#979797" d="M2952.73 -950 L13135.54 -950.13 L13135.67 9232.68 L2952.86 9232.81 L2952.73 -950 L3022 -880.75 L13066.28 -880.88 L13066.4 9163.42 L3022.12 9163.54 L3022 -880.75 L2952.73 -950z"/>
     <path fill="#979797" d="M2987.36 -915.38 L13100.92 -915.5 L13101.04 9198.06 L2987.48 9198.18 L2987.36 -915.38 L3056.64 -846.11 L13031.64 -846.24 L13031.76 9128.77 L3056.77 9128.9 L3056.64 -846.11 L2987.36 -915.38z"/>
     <path fill="#989898" d="M3022 -880.74 L13066.28 -880.86 L13066.4 9163.42 L3022.12 9163.54 L3022 -880.74 L3091.28 -811.47 L12997 -811.6 L12997.12 9094.13 L3091.41 9094.26 L3091.28 -811.47 L3022 -880.74z"/>
     <path fill="#999999" d="M3056.64 -846.1 L13031.64 -846.22 L13031.76 9128.77 L3056.77 9128.9 L3056.64 -846.1 L3125.91 -776.85 L12962.37 -776.97 L12962.5 9059.51 L3126.03 9059.63 L3125.91 -776.85 L3056.64 -846.1z"/>
     <path fill="#9A9A9A" d="M3091.27 -811.47 L12997.01 -811.6 L12997.14 9094.15 L3091.39 9094.27 L3091.27 -811.47 L3160.55 -742.21 L12927.73 -742.33 L12927.85 9024.87 L3160.67 9024.99 L3160.55 -742.21 L3091.27 -811.47z"/>
     <path fill="#9A9A9A" d="M3125.91 -776.83 L12962.37 -776.96 L12962.5 9059.51 L3126.03 9059.63 L3125.91 -776.83 L3195.19 -707.56 L12893.09 -707.69 L12893.21 8990.23 L3195.31 8990.35 L3195.19 -707.56 L3125.91 -776.83z"/>
     <path fill="#9B9B9B" d="M3160.55 -742.19 L12927.73 -742.31 L12927.85 9024.87 L3160.67 9024.99 L3160.55 -742.19 L3229.81 -672.94 L12858.46 -673.06 L12858.59 8955.6 L3229.94 8955.73 L3229.81 -672.94 L3160.55 -742.19z"/>
     <path fill="#9C9C9C" d="M3195.17 -707.56 L12893.1 -707.69 L12893.23 8990.24 L3195.3 8990.37 L3195.17 -707.56 L3264.47 -638.31 L12823.84 -638.41 L12823.93 8920.98 L3264.56 8921.07 L3264.47 -638.31 L3195.17 -707.56z"/>
     <path fill="#9C9C9C" d="M3229.81 -672.92 L12858.46 -673.05 L12858.59 8955.6 L3229.94 8955.73 L3229.81 -672.92 L3299.1 -603.69 L12789.21 -603.78 L12789.31 8886.35 L3299.19 8886.44 L3299.1 -603.69 L3229.81 -672.92z"/>
     <path fill="#9D9D9D" d="M3264.46 -638.31 L12823.85 -638.41 L12823.95 8920.99 L3264.55 8921.08 L3264.46 -638.31 L3333.74 -569.05 L12754.57 -569.14 L12754.67 8851.71 L3333.83 8851.8 L3333.74 -569.05 L3264.46 -638.31z"/>
     <path fill="#9E9E9E" d="M3299.1 -603.67 L12789.21 -603.77 L12789.31 8886.35 L3299.19 8886.44 L3299.1 -603.67 L3368.38 -534.41 L12719.93 -534.5 L12720.02 8817.07 L3368.47 8817.16 L3368.38 -534.41 L3299.1 -603.67z"/>
     <path fill="#9F9F9F" d="M3333.74 -569.03 L12754.57 -569.13 L12754.67 8851.71 L3333.83 8851.8 L3333.74 -569.03 L3403 -499.78 L12685.31 -499.87 L12685.4 8782.44 L3403.1 8782.54 L3403 -499.78 L3333.74 -569.03z"/>
     <path fill="#9F9F9F" d="M3368.36 -534.41 L12719.95 -534.5 L12720.04 8817.08 L3368.46 8817.18 L3368.36 -534.41 L3437.64 -465.14 L12650.66 -465.23 L12650.76 8747.8 L3437.74 8747.9 L3437.64 -465.14 L3368.36 -534.41z"/>
     <path fill="#A0A0A0" d="M3403 -499.77 L12685.31 -499.86 L12685.4 8782.44 L3403.1 8782.54 L3403 -499.77 L3472.29 -430.5 L12616.02 -430.59 L12616.12 8713.16 L3472.38 8713.25 L3472.29 -430.5 L3403 -499.77z"/>
     <path fill="#A1A1A1" d="M3437.64 -465.12 L12650.66 -465.22 L12650.76 8747.8 L3437.74 8747.9 L3437.64 -465.12 L3506.91 -395.87 L12581.4 -395.97 L12581.49 8678.54 L3507 8678.63 L3506.91 -395.87 L3437.64 -465.12z"/>
     <path fill="#A1A1A1" d="M3472.27 -430.5 L12616.04 -430.59 L12616.13 8713.18 L3472.36 8713.27 L3472.27 -430.5 L3541.55 -361.23 L12546.76 -361.33 L12546.85 8643.89 L3541.64 8643.99 L3541.55 -361.23 L3472.27 -430.5z"/>
     <path fill="#A2A2A2" d="M3506.91 -395.86 L12581.4 -395.95 L12581.49 8678.54 L3507 8678.63 L3506.91 -395.86 L3576.19 -326.59 L12512.12 -326.69 L12512.21 8609.25 L3576.29 8609.35 L3576.19 -326.59 L3506.91 -395.86z"/>
     <path fill="#A3A3A3" d="M3541.55 -361.22 L12546.76 -361.31 L12546.85 8643.89 L3541.64 8643.99 L3541.55 -361.22 L3610.82 -291.97 L12477.49 -292.06 L12477.58 8574.63 L3610.91 8574.72 L3610.82 -291.97 L3541.55 -361.22z"/>
     <path fill="#A4A4A4" d="M3576.18 -326.59 L12512.13 -326.69 L12512.23 8609.27 L3576.27 8609.36 L3576.18 -326.59 L3645.46 -257.33 L12442.85 -257.42 L12442.94 8539.99 L3645.55 8540.08 L3645.46 -257.33 L3576.18 -326.59z"/>
     <path fill="#A4A4A4" d="M3610.82 -291.95 L12477.49 -292.04 L12477.58 8574.63 L3610.91 8574.72 L3610.82 -291.95 L3680.1 -222.68 L12408.21 -222.78 L12408.3 8505.35 L3680.19 8505.44 L3680.1 -222.68 L3610.82 -291.95z"/>
     <path fill="#A5A5A5" d="M3645.46 -257.31 L12442.85 -257.4 L12442.94 8539.99 L3645.55 8540.08 L3645.46 -257.31 L3714.72 -188.06 L12373.58 -188.15 L12373.68 8470.72 L3714.82 8470.82 L3714.72 -188.06 L3645.46 -257.31z"/>
     <path fill="#A6A6A6" d="M3680.08 -222.68 L12408.22 -222.78 L12408.32 8505.36 L3680.18 8505.46 L3680.08 -222.68 L3749.37 -153.42 L12338.94 -153.51 L12339.04 8436.08 L3749.46 8436.17 L3749.37 -153.42 L3680.08 -222.68z"/>
     <path fill="#A6A6A6" d="M3714.72 -188.04 L12373.58 -188.14 L12373.68 8470.72 L3714.82 8470.82 L3714.72 -188.04 L3784.01 -118.78 L12304.3 -118.87 L12304.4 8401.44 L3784.1 8401.53 L3784.01 -118.78 L3714.72 -188.04z"/>
     <path fill="#A7A7A7" d="M3749.37 -153.4 L12338.94 -153.5 L12339.04 8436.08 L3749.46 8436.17 L3749.37 -153.4 L3818.63 -84.15 L12269.68 -84.25 L12269.77 8366.81 L3818.73 8366.91 L3818.63 -84.15 L3749.37 -153.4z"/>
     <path fill="#A8A8A8" d="M3783.99 -118.78 L12304.32 -118.87 L12304.41 8401.46 L3784.08 8401.55 L3783.99 -118.78 L3853.27 -49.51 L12235.04 -49.61 L12235.13 8332.17 L3853.37 8332.27 L3853.27 -49.51 L3783.99 -118.78z"/>
     <path fill="darkgray" d="M3818.63 -84.14 L12269.68 -84.23 L12269.77 8366.81 L3818.73 8366.91 L3818.63 -84.14 L3887.91 -14.87 L12200.39 -14.96 L12200.49 8297.53 L3888.01 8297.63 L3887.91 -14.87 L3818.63 -84.14z"/>
     <path fill="darkgray" d="M3853.27 -49.5 L12235.04 -49.59 L12235.13 8332.17 L3853.37 8332.27 L3853.27 -49.5 L3922.54 19.75 L12165.77 19.66 L12165.86 8262.91 L3922.63 8263 L3922.54 19.75 L3853.27 -49.5z"/>
     <path fill="#AAAAAA" d="M3887.9 -14.87 L12200.41 -14.96 L12200.5 8297.55 L3887.99 8297.64 L3887.9 -14.87 L3957.18 54.4 L12131.13 54.3 L12131.22 8228.27 L3957.27 8228.36 L3957.18 54.4 L3887.9 -14.87z"/>
     <path fill="#ABABAB" d="M3922.54 19.77 L12165.77 19.68 L12165.86 8262.91 L3922.63 8263 L3922.54 19.77 L3991.82 89.04 L12096.49 88.94 L12096.58 8193.63 L3991.91 8193.72 L3991.82 89.04 L3922.54 19.77z"/>
     <path fill="#ABABAB" d="M3957.18 54.41 L12131.13 54.32 L12131.22 8228.27 L3957.27 8228.36 L3957.18 54.41 L4026.45 123.66 L12061.86 123.57 L12061.96 8159 L4026.54 8159.09 L4026.45 123.66 L3957.18 54.41z"/>
     <path fill="#ACACAC" d="M3991.81 89.04 L12096.5 88.94 L12096.6 8193.64 L3991.9 8193.73 L3991.81 89.04 L4061.09 158.3 L12027.22 158.21 L12027.31 8124.36 L4061.18 8124.45 L4061.09 158.3 L3991.81 89.04z"/>
     <path fill="#ADADAD" d="M4026.45 123.68 L12061.86 123.58 L12061.96 8159 L4026.54 8159.09 L4026.45 123.68 L4095.71 192.93 L11992.6 192.83 L11992.69 8089.73 L4095.81 8089.83 L4095.71 192.93 L4026.45 123.68z"/>
     <path fill="#AEAEAE" d="M4061.07 158.3 L12027.24 158.21 L12027.33 8124.37 L4061.17 8124.47 L4061.07 158.3 L4130.35 227.57 L11957.96 227.48 L11958.05 8055.09 L4130.45 8055.19 L4130.35 227.57 L4061.07 158.3z"/>
     <path fill="#AEAEAE" d="M4095.71 192.94 L11992.6 192.85 L11992.69 8089.73 L4095.81 8089.83 L4095.71 192.94 L4164.99 262.21 L11923.31 262.12 L11923.41 8020.45 L4165.09 8020.55 L4164.99 262.21 L4095.71 192.94z"/>
     <path fill="#AFAFAF" d="M4130.35 227.58 L11957.96 227.49 L11958.05 8055.09 L4130.45 8055.19 L4130.35 227.58 L4199.62 296.84 L11888.69 296.74 L11888.78 7985.83 L4199.71 7985.92 L4199.62 296.84 L4130.35 227.58z"/>
     <path fill="#B0B0B0" d="M4164.98 262.21 L11923.33 262.12 L11923.42 8020.47 L4165.07 8020.56 L4164.98 262.21 L4234.26 331.48 L11854.05 331.38 L11854.14 7951.19 L4234.35 7951.28 L4234.26 331.48 L4164.98 262.21z"/>
     <path fill="#B0B0B0" d="M4199.62 296.85 L11888.69 296.76 L11888.78 7985.83 L4199.71 7985.92 L4199.62 296.85 L4268.9 366.12 L11819.41 366.02 L11819.5 7916.54 L4269 7916.64 L4268.9 366.12 L4199.62 296.85z"/>
     <path fill="#B1B1B1" d="M4234.26 331.49 L11854.05 331.4 L11854.14 7951.19 L4234.35 7951.28 L4234.26 331.49 L4303.53 400.74 L11784.78 400.65 L11784.88 7881.92 L4303.62 7882.01 L4303.53 400.74 L4234.26 331.49z"/>
     <path fill="#B2B2B2" d="M4268.89 366.12 L11819.42 366.02 L11819.52 7916.56 L4268.98 7916.65 L4268.89 366.12 L4338.17 435.38 L11750.14 435.29 L11750.23 7847.28 L4338.26 7847.37 L4338.17 435.38 L4268.89 366.12z"/>
     <path fill="#B3B3B3" d="M4303.53 400.76 L11784.78 400.66 L11784.88 7881.92 L4303.62 7882.01 L4303.53 400.76 L4372.81 470.02 L11715.5 469.93 L11715.59 7812.64 L4372.9 7812.73 L4372.81 470.02 L4303.53 400.76z"/>
     <path fill="#B3B3B3" d="M4338.17 435.4 L11750.14 435.31 L11750.23 7847.28 L4338.26 7847.37 L4338.17 435.4 L4407.43 504.65 L11680.87 504.56 L11680.97 7778.01 L4407.53 7778.11 L4407.43 504.65 L4338.17 435.4z"/>
     <path fill="#B4B4B4" d="M4372.79 470.02 L11715.52 469.93 L11715.61 7812.65 L4372.89 7812.75 L4372.79 470.02 L4442.07 539.29 L11646.23 539.2 L11646.33 7743.37 L4442.17 7743.46 L4442.07 539.29 L4372.79 470.02z"/>
     <path fill="#B5B5B5" d="M4407.43 504.67 L11680.87 504.57 L11680.97 7778.01 L4407.53 7778.11 L4407.43 504.67 L4476.72 573.93 L11611.59 573.84 L11611.69 7708.73 L4476.81 7708.82 L4476.72 573.93 L4407.43 504.67z"/>
     <path fill="#B5B5B5" d="M4442.07 539.31 L11646.23 539.21 L11646.33 7743.37 L4442.17 7743.46 L4442.07 539.31 L4511.34 608.56 L11576.97 608.46 L11577.06 7674.1 L4511.43 7674.2 L4511.34 608.56 L4442.07 539.31z"/>
     <path fill="#B6B6B6" d="M4476.7 573.93 L11611.61 573.84 L11611.7 7708.75 L4476.79 7708.84 L4476.7 573.93 L4545.98 643.2 L11542.33 643.1 L11542.42 7639.46 L4546.08 7639.56 L4545.98 643.2 L4476.7 573.93z"/>
     <path fill="#B7B7B7" d="M4511.34 608.57 L11576.97 608.48 L11577.06 7674.1 L4511.43 7674.2 L4511.34 608.57 L4580.62 677.84 L11507.69 677.75 L11507.78 7604.82 L4580.72 7604.92 L4580.62 677.84 L4511.34 608.57z"/>
     <path fill="#B8B8B8" d="M4545.98 643.21 L11542.33 643.12 L11542.42 7639.46 L4546.08 7639.56 L4545.98 643.21 L4615.25 712.46 L11473.06 712.37 L11473.15 7570.2 L4615.34 7570.29 L4615.25 712.46 L4545.98 643.21z"/>
     <path fill="#B8B8B8" d="M4580.61 677.84 L11507.7 677.75 L11507.79 7604.84 L4580.7 7604.93 L4580.61 677.84 L4649.9 747.09 L11438.43 747.03 L11438.5 7535.57 L4649.97 7535.63 L4649.9 747.09 L4580.61 677.84z"/>
     <path fill="#B9B9B9" d="M4615.25 712.48 L11473.06 712.39 L11473.15 7570.2 L4615.34 7570.29 L4615.25 712.48 L4684.55 781.73 L11403.79 781.67 L11403.86 7500.93 L4684.61 7500.99 L4684.55 781.73 L4615.25 712.48z"/>
     <path fill="#BABABA" d="M4649.9 747.1 L11438.43 747.04 L11438.5 7535.57 L4649.97 7535.63 L4649.9 747.1 L4719.17 816.36 L11369.17 816.29 L11369.23 7466.31 L4719.23 7466.37 L4719.17 816.36 L4649.9 747.1z"/>
     <path fill="#BABABA" d="M4684.53 781.73 L11403.81 781.67 L11403.87 7500.95 L4684.59 7501.01 L4684.53 781.73 L4753.81 851 L11334.53 850.93 L11334.59 7431.67 L4753.87 7431.73 L4753.81 851 L4684.53 781.73z"/>
     <path fill="#BBBBBB" d="M4719.17 816.37 L11369.17 816.31 L11369.23 7466.31 L4719.23 7466.37 L4719.17 816.37 L4788.45 885.64 L11299.89 885.58 L11299.95 7397.02 L4788.52 7397.09 L4788.45 885.64 L4719.17 816.37z"/>
     <path fill="#BCBCBC" d="M4753.81 851.01 L11334.53 850.95 L11334.59 7431.67 L4753.87 7431.73 L4753.81 851.01 L4823.08 920.26 L11265.26 920.2 L11265.32 7362.4 L4823.14 7362.46 L4823.08 920.26 L4753.81 851.01z"/>
     <path fill="#BDBDBD" d="M4788.44 885.64 L11299.9 885.58 L11299.96 7397.04 L4788.5 7397.1 L4788.44 885.64 L4857.72 954.9 L11230.62 954.84 L11230.68 7327.76 L4857.78 7327.82 L4857.72 954.9 L4788.44 885.64z"/>
     <path fill="#BDBDBD" d="M4823.08 920.28 L11265.26 920.22 L11265.32 7362.4 L4823.14 7362.46 L4823.08 920.28 L4892.34 989.53 L11196 989.47 L11196.06 7293.13 L4892.41 7293.2 L4892.34 989.53 L4823.08 920.28z"/>
     <path fill="#BEBEBE" d="M4857.7 954.9 L11230.64 954.84 L11230.7 7327.77 L4857.77 7327.84 L4857.7 954.9 L4926.99 1024.17 L11161.35 1024.11 L11161.42 7258.49 L4927.05 7258.55 L4926.99 1024.17 L4857.7 954.9z"/>
     <path fill="#BFBFBF" d="M4892.34 989.54 L11196 989.48 L11196.06 7293.13 L4892.41 7293.2 L4892.34 989.54 L4961.63 1058.81 L11126.71 1058.75 L11126.78 7223.85 L4961.69 7223.91 L4961.63 1058.81 L4892.34 989.54z"/>
     <path fill="#BFBFBF" d="M4926.99 1024.19 L11161.35 1024.12 L11161.42 7258.49 L4927.05 7258.55 L4926.99 1024.19 L4996.25 1093.44 L11092.09 1093.37 L11092.15 7189.23 L4996.31 7189.29 L4996.25 1093.44 L4926.99 1024.19z"/>
     <path fill="silver" d="M4961.61 1058.81 L11126.73 1058.75 L11126.79 7223.87 L4961.67 7223.93 L4961.61 1058.81 L5030.89 1128.08 L11057.45 1128.01 L11057.51 7154.58 L5030.96 7154.65 L5030.89 1128.08 L4961.61 1058.81z"/>
     <path fill="#C1C1C1" d="M4996.25 1093.45 L11092.09 1093.39 L11092.15 7189.23 L4996.31 7189.29 L4996.25 1093.45 L5065.53 1162.72 L11022.81 1162.66 L11022.87 7119.94 L5065.6 7120.01 L5065.53 1162.72 L4996.25 1093.45z"/>
     <path fill="#C2C2C2" d="M5030.89 1128.09 L11057.45 1128.03 L11057.51 7154.58 L5030.96 7154.65 L5030.89 1128.09 L5100.16 1197.34 L10988.18 1197.28 L10988.24 7085.32 L5100.22 7085.38 L5100.16 1197.34 L5030.89 1128.09z"/>
     <path fill="#C2C2C2" d="M5065.52 1162.72 L11022.82 1162.66 L11022.88 7119.96 L5065.58 7120.02 L5065.52 1162.72 L5134.8 1231.98 L10953.54 1231.92 L10953.6 7050.68 L5134.86 7050.74 L5134.8 1231.98 L5065.52 1162.72z"/>
     <path fill="#C3C3C3" d="M5100.16 1197.36 L10988.18 1197.3 L10988.24 7085.32 L5100.22 7085.38 L5100.16 1197.36 L5169.43 1266.63 L10918.9 1266.56 L10918.96 7016.04 L5169.49 7016.1 L5169.43 1266.63 L5100.16 1197.36z"/>
     <path fill="#C4C4C4" d="M5134.8 1232 L10953.54 1231.94 L10953.6 7050.68 L5134.86 7050.74 L5134.8 1232 L5204.05 1301.25 L10884.27 1301.19 L10884.34 6981.41 L5204.11 6981.47 L5204.05 1301.25 L5134.8 1232z"/>
     <path fill="#C4C4C4" d="M5169.43 1266.63 L10918.91 1266.56 L10918.98 7016.05 L5169.49 7016.11 L5169.43 1266.63 L5238.69 1335.89 L10849.63 1335.83 L10849.7 6946.77 L5238.75 6946.83 L5238.69 1335.89 L5169.43 1266.63z"/>
     <path fill="#C5C5C5" d="M5204.07 1301.27 L10884.27 1301.2 L10884.34 6981.41 L5204.13 6981.47 L5204.07 1301.27 L5273.33 1370.53 L10814.99 1370.47 L10815.05 6912.13 L5273.39 6912.19 L5273.33 1370.53 L5204.07 1301.27z"/>
     <path fill="#C6C6C6" d="M5238.71 1335.91 L10849.63 1335.84 L10849.7 6946.77 L5238.77 6946.83 L5238.71 1335.91 L5307.96 1405.16 L10780.37 1405.1 L10780.43 6877.5 L5308.02 6877.57 L5307.96 1405.16 L5238.71 1335.91z"/>
     <path fill="#C7C7C7" d="M5273.33 1370.53 L10815.01 1370.47 L10815.07 6912.14 L5273.39 6912.21 L5273.33 1370.53 L5342.6 1439.8 L10745.73 1439.74 L10745.79 6842.86 L5342.66 6842.93 L5342.6 1439.8 L5273.33 1370.53z"/>
     <path fill="#C7C7C7" d="M5307.97 1405.17 L10780.37 1405.11 L10780.43 6877.5 L5308.04 6877.57 L5307.97 1405.17 L5377.24 1474.44 L10711.08 1474.38 L10711.15 6808.22 L5377.3 6808.28 L5377.24 1474.44 L5307.97 1405.17z"/>
     <path fill="#C8C8C8" d="M5342.61 1439.81 L10745.73 1439.75 L10745.79 6842.86 L5342.68 6842.93 L5342.61 1439.81 L5411.86 1509.06 L10676.46 1509 L10676.52 6773.6 L5411.93 6773.66 L5411.86 1509.06 L5342.61 1439.81z"/>
     <path fill="#C9C9C9" d="M5377.24 1474.44 L10711.1 1474.38 L10711.16 6808.24 L5377.3 6808.3 L5377.24 1474.44 L5446.51 1543.71 L10641.82 1543.64 L10641.88 6738.96 L5446.57 6739.02 L5446.51 1543.71 L5377.24 1474.44z"/>
     <path fill="#C9C9C9" d="M5411.88 1509.08 L10676.46 1509.02 L10676.52 6773.6 L5411.94 6773.66 L5411.88 1509.08 L5481.15 1578.35 L10607.18 1578.28 L10607.24 6704.31 L5481.21 6704.38 L5481.15 1578.35 L5411.88 1509.08z"/>
     <path fill="#CACACA" d="M5446.52 1543.72 L10641.82 1543.66 L10641.88 6738.96 L5446.58 6739.02 L5446.52 1543.72 L5515.77 1612.97 L10572.55 1612.91 L10572.61 6669.69 L5515.83 6669.75 L5515.77 1612.97 L5446.52 1543.72z"/>
     <path fill="#CBCBCB" d="M5481.15 1578.35 L10607.19 1578.28 L10607.26 6704.33 L5481.21 6704.39 L5481.15 1578.35 L5550.41 1647.61 L10537.91 1647.55 L10537.97 6635.05 L5550.48 6635.11 L5550.41 1647.61 L5481.15 1578.35z"/>
     <path fill="#CCCCCC" d="M5515.79 1612.99 L10572.55 1612.93 L10572.61 6669.69 L5515.85 6669.75 L5515.79 1612.99 L5585.05 1682.25 L10503.27 1682.19 L10503.33 6600.41 L5585.12 6600.47 L5585.05 1682.25 L5515.79 1612.99z"/>
     <path fill="#CCCCCC" d="M5550.43 1647.63 L10537.91 1647.57 L10537.97 6635.05 L5550.49 6635.11 L5550.43 1647.63 L5619.68 1716.88 L10468.64 1716.82 L10468.71 6565.78 L5619.74 6565.84 L5619.68 1716.88 L5550.43 1647.63z"/>
     <path fill="#CDCDCD" d="M5585.05 1682.25 L10503.29 1682.19 L10503.35 6600.42 L5585.12 6600.49 L5585.05 1682.25 L5654.32 1751.52 L10434 1751.46 L10434.07 6531.14 L5654.38 6531.2 L5654.32 1751.52 L5585.05 1682.25z"/>
     <path fill="#CECECE" d="M5619.69 1716.89 L10468.64 1716.83 L10468.71 6565.78 L5619.76 6565.84 L5619.69 1716.89 L5688.95 1786.15 L10399.38 1786.08 L10399.44 6496.52 L5689.01 6496.58 L5688.95 1786.15 L5619.69 1716.89z"/>
     <path fill="#CECECE" d="M5654.32 1751.52 L10434.02 1751.46 L10434.08 6531.16 L5654.38 6531.22 L5654.32 1751.52 L5723.59 1820.79 L10364.74 1820.72 L10364.8 6461.88 L5723.65 6461.94 L5723.59 1820.79 L5654.32 1751.52z"/>
     <path fill="#CFCFCF" d="M5688.96 1786.16 L10399.38 1786.1 L10399.44 6496.52 L5689.02 6496.58 L5688.96 1786.16 L5758.23 1855.43 L10330.1 1855.37 L10330.16 6427.23 L5758.29 6427.3 L5758.23 1855.43 L5688.96 1786.16z"/>
     <path fill="#D0D0D0" d="M5723.6 1820.8 L10364.74 1820.74 L10364.8 6461.88 L5723.66 6461.94 L5723.6 1820.8 L5792.85 1890.05 L10295.47 1889.99 L10295.53 6392.61 L5792.92 6392.67 L5792.85 1890.05 L5723.6 1820.8z"/>
     <path fill="#D1D1D1" d="M5758.23 1855.43 L10330.11 1855.37 L10330.17 6427.25 L5758.29 6427.31 L5758.23 1855.43 L5827.49 1924.69 L10260.83 1924.63 L10260.89 6357.97 L5827.56 6358.03 L5827.49 1924.69 L5758.23 1855.43z"/>
     <path fill="#D1D1D1" d="M5792.87 1890.07 L10295.47 1890.01 L10295.53 6392.61 L5792.93 6392.67 L5792.87 1890.07 L5862.13 1959.33 L10226.19 1959.27 L10226.25 6323.33 L5862.2 6323.39 L5862.13 1959.33 L5792.87 1890.07z"/>
     <path fill="#D2D2D2" d="M5827.51 1924.71 L10260.83 1924.65 L10260.89 6357.97 L5827.57 6358.03 L5827.51 1924.71 L5896.76 1993.96 L10191.56 1993.9 L10191.63 6288.7 L5896.82 6288.76 L5896.76 1993.96 L5827.51 1924.71z"/>
     <path fill="lightgrey" d="M5862.13 1959.33 L10226.21 1959.27 L10226.27 6323.34 L5862.2 6323.41 L5862.13 1959.33 L5931.4 2028.6 L10156.92 2028.54 L10156.99 6254.06 L5931.46 6254.12 L5931.4 2028.6 L5862.13 1959.33z"/>
     <path fill="lightgrey" d="M5896.78 1993.98 L10191.56 1993.91 L10191.63 6288.7 L5896.84 6288.76 L5896.78 1993.98 L5966.04 2063.24 L10122.28 2063.18 L10122.34 6219.42 L5966.1 6219.48 L5966.04 2063.24 L5896.78 1993.98z"/>
     <path fill="#D4D4D4" d="M5931.42 2028.62 L10156.92 2028.55 L10156.99 6254.06 L5931.48 6254.12 L5931.42 2028.62 L6000.68 2097.85 L10087.67 2097.82 L10087.7 6184.81 L6000.71 6184.84 L6000.68 2097.85 L5931.42 2028.62z"/>
     <path fill="#D5D5D5" d="M5966.04 2063.24 L10122.3 2063.18 L10122.36 6219.44 L5966.1 6219.5 L5966.04 2063.24 L6035.32 2132.49 L10053.03 2132.46 L10053.06 6150.17 L6035.35 6150.2 L6035.32 2132.49 L5966.04 2063.24z"/>
     <path fill="#D6D6D6" d="M6000.7 2097.87 L10087.67 2097.84 L10087.7 6184.81 L6000.73 6184.84 L6000.7 2097.87 L6069.96 2167.13 L10018.39 2167.1 L10018.42 6115.53 L6070 6115.56 L6069.96 2167.13 L6000.7 2097.87z"/>
     <path fill="#D6D6D6" d="M6035.34 2132.51 L10053.03 2132.48 L10053.06 6150.17 L6035.37 6150.2 L6035.34 2132.51 L6104.59 2201.76 L9983.77 2201.73 L9983.8 6080.9 L6104.62 6080.93 L6104.59 2201.76 L6035.34 2132.51z"/>
     <path fill="#D7D7D7" d="M6069.96 2167.13 L10018.41 2167.1 L10018.44 6115.54 L6070 6115.58 L6069.96 2167.13 L6139.23 2236.4 L9949.12 2236.37 L9949.16 6046.26 L6139.26 6046.29 L6139.23 2236.4 L6069.96 2167.13z"/>
     <path fill="#D8D8D8" d="M6104.61 2201.77 L9983.77 2201.74 L9983.8 6080.9 L6104.64 6080.93 L6104.61 2201.77 L6173.87 2271.04 L9914.48 2271.01 L9914.51 6011.62 L6173.9 6011.65 L6173.87 2271.04 L6104.61 2201.77z"/>
     <path fill="#D8D8D8" d="M6139.25 2236.42 L9949.12 2236.38 L9949.16 6046.26 L6139.28 6046.29 L6139.25 2236.42 L6208.5 2305.67 L9879.86 2305.63 L9879.89 5977 L6208.53 5977.03 L6208.5 2305.67 L6139.25 2236.42z"/>
     <path fill="#D9D9D9" d="M6173.87 2271.04 L9914.5 2271.01 L9914.53 6011.64 L6173.9 6011.67 L6173.87 2271.04 L6243.14 2340.31 L9845.22 2340.28 L9845.25 5942.35 L6243.17 5942.39 L6243.14 2340.31 L6173.87 2271.04z"/>
     <path fill="#DADADA" d="M6208.51 2305.68 L9879.86 2305.65 L9879.89 5977 L6208.54 5977.03 L6208.51 2305.68 L6277.78 2374.95 L9810.58 2374.92 L9810.61 5907.71 L6277.81 5907.75 L6277.78 2374.95 L6208.51 2305.68z"/>
     <path fill="#DBDBDB" d="M6243.15 2340.32 L9845.22 2340.29 L9845.25 5942.35 L6243.18 5942.39 L6243.15 2340.32 L6312.4 2409.57 L9775.95 2409.54 L9775.98 5873.09 L6312.44 5873.12 L6312.4 2409.57 L6243.15 2340.32z"/>
     <path fill="#DBDBDB" d="M6277.78 2374.95 L9810.59 2374.92 L9810.62 5907.73 L6277.81 5907.76 L6277.78 2374.95 L6347.05 2444.21 L9741.31 2444.18 L9741.34 5838.45 L6347.08 5838.48 L6347.05 2444.21 L6277.78 2374.95z"/>
     <path fill="gainsboro" d="M6312.42 2409.59 L9775.95 2409.56 L9775.98 5873.09 L6312.45 5873.12 L6312.42 2409.59 L6381.69 2478.85 L9706.67 2478.82 L9706.7 5803.81 L6381.72 5803.84 L6381.69 2478.85 L6312.42 2409.59z"/>
     <path fill="#DDDDDD" d="M6347.06 2444.23 L9741.31 2444.2 L9741.34 5838.45 L6347.09 5838.48 L6347.06 2444.23 L6416.31 2513.48 L9672.04 2513.45 L9672.08 5769.18 L6416.34 5769.21 L6416.31 2513.48 L6347.06 2444.23z"/>
     <path fill="#DDDDDD" d="M6381.69 2478.85 L9706.68 2478.82 L9706.72 5803.82 L6381.72 5803.85 L6381.69 2478.85 L6450.95 2548.12 L9637.4 2548.09 L9637.43 5734.54 L6450.98 5734.57 L6450.95 2548.12 L6381.69 2478.85z"/>
     <path fill="#DEDEDE" d="M6416.33 2513.5 L9672.04 2513.46 L9672.08 5769.18 L6416.36 5769.21 L6416.33 2513.5 L6485.58 2582.75 L9602.78 2582.72 L9602.81 5699.92 L6485.61 5699.95 L6485.58 2582.75 L6416.33 2513.5z"/>
     <path fill="#DFDFDF" d="M6450.95 2548.12 L9637.42 2548.09 L9637.45 5734.56 L6450.98 5734.59 L6450.95 2548.12 L6520.22 2617.39 L9568.14 2617.36 L9568.17 5665.27 L6520.25 5665.31 L6520.22 2617.39 L6450.95 2548.12z"/>
     <path fill="#E0E0E0" d="M6485.59 2582.76 L9602.78 2582.73 L9602.81 5699.92 L6485.62 5699.95 L6485.59 2582.76 L6554.86 2652.03 L9533.5 2652 L9533.53 5630.63 L6554.89 5630.66 L6554.86 2652.03 L6485.59 2582.76z"/>
     <path fill="#E0E0E0" d="M6520.23 2617.4 L9568.14 2617.37 L9568.17 5665.27 L6520.27 5665.31 L6520.23 2617.4 L6589.48 2686.65 L9498.87 2686.62 L9498.9 5596.01 L6589.52 5596.04 L6589.48 2686.65 L6520.23 2617.4z"/>
     <path fill="#E1E1E1" d="M6554.86 2652.03 L9533.51 2652 L9533.54 5630.65 L6554.89 5630.68 L6554.86 2652.03 L6624.13 2721.29 L9464.23 2721.26 L9464.26 5561.37 L6624.16 5561.4 L6624.13 2721.29 L6554.86 2652.03z"/>
     <path fill="#E2E2E2" d="M6589.5 2686.67 L9498.87 2686.64 L9498.9 5596.01 L6589.53 5596.04 L6589.5 2686.67 L6658.77 2755.94 L9429.59 2755.9 L9429.62 5526.73 L6658.8 5526.76 L6658.77 2755.94 L6589.5 2686.67z"/>
     <path fill="#E2E2E2" d="M6624.14 2721.31 L9464.23 2721.28 L9464.26 5561.37 L6624.17 5561.4 L6624.14 2721.31 L6693.39 2790.56 L9394.96 2790.53 L9394.99 5492.1 L6693.42 5492.13 L6693.39 2790.56 L6624.14 2721.31z"/>
     <path fill="#E3E3E3" d="M6658.77 2755.94 L9429.6 2755.9 L9429.64 5526.74 L6658.8 5526.77 L6658.77 2755.94 L6728.03 2825.2 L9360.32 2825.17 L9360.35 5457.46 L6728.06 5457.49 L6728.03 2825.2 L6658.77 2755.94z"/>
     <path fill="#E4E4E4" d="M6693.41 2790.58 L9394.96 2790.55 L9394.99 5492.1 L6693.44 5492.13 L6693.41 2790.58 L6762.67 2859.84 L9325.68 2859.81 L9325.71 5422.82 L6762.71 5422.85 L6762.67 2859.84 L6693.41 2790.58z"/>
     <path fill="#E5E5E5" d="M6728.05 2825.22 L9360.32 2825.19 L9360.35 5457.46 L6728.08 5457.49 L6728.05 2825.22 L6797.3 2894.47 L9291.06 2894.44 L9291.09 5388.19 L6797.33 5388.22 L6797.3 2894.47 L6728.05 2825.22z"/>
     <path fill="#E5E5E5" d="M6762.67 2859.84 L9325.7 2859.81 L9325.73 5422.83 L6762.71 5422.87 L6762.67 2859.84 L6831.94 2929.11 L9256.42 2929.08 L9256.45 5353.55 L6831.97 5353.58 L6831.94 2929.11 L6762.67 2859.84z"/>
     <path fill="#E6E6E6" d="M6797.31 2894.48 L9291.06 2894.45 L9291.09 5388.19 L6797.35 5388.22 L6797.31 2894.48 L6866.58 2963.75 L9221.77 2963.72 L9221.81 5318.91 L6866.61 5318.94 L6866.58 2963.75 L6797.31 2894.48z"/>
     <path fill="#E7E7E7" d="M6831.96 2929.12 L9256.42 2929.09 L9256.45 5353.55 L6831.99 5353.58 L6831.96 2929.12 L6901.21 2998.38 L9187.15 2998.34 L9187.18 5284.29 L6901.24 5284.32 L6901.21 2998.38 L6831.96 2929.12z"/>
     <path fill="#E7E7E7" d="M6866.58 2963.75 L9221.79 2963.72 L9221.82 5318.93 L6866.61 5318.96 L6866.58 2963.75 L6935.85 3033.02 L9152.51 3032.98 L9152.54 5249.65 L6935.88 5249.68 L6935.85 3033.02 L6866.58 2963.75z"/>
     <path fill="#E8E8E8" d="M6901.22 2998.39 L9187.15 2998.36 L9187.18 5284.29 L6901.25 5284.32 L6901.22 2998.39 L6970.49 3067.66 L9117.87 3067.63 L9117.9 5215 L6970.52 5215.04 L6970.49 3067.66 L6901.22 2998.39z"/>
     <path fill="#E9E9E9" d="M6935.86 3033.03 L9152.51 3033 L9152.54 5249.65 L6935.89 5249.68 L6935.86 3033.03 L7005.11 3102.28 L9083.24 3102.25 L9083.27 5180.38 L7005.14 5180.41 L7005.11 3102.28 L6935.86 3033.03z"/>
     <path fill="#EAEAEA" d="M6970.49 3067.66 L9117.88 3067.63 L9117.91 5215.02 L6970.52 5215.05 L6970.49 3067.66 L7039.75 3136.92 L9048.6 3136.89 L9048.63 5145.74 L7039.79 5145.77 L7039.75 3136.92 L6970.49 3067.66z"/>
     <path fill="#EAEAEA" d="M7005.13 3102.3 L9083.24 3102.27 L9083.27 5180.38 L7005.16 5180.41 L7005.13 3102.3 L7074.4 3171.56 L9013.96 3171.53 L9013.99 5111.1 L7074.43 5111.13 L7074.4 3171.56 L7005.13 3102.3z"/>
     <path fill="#EBEBEB" d="M7039.77 3136.94 L9048.6 3136.91 L9048.63 5145.74 L7039.8 5145.77 L7039.77 3136.94 L7109.02 3206.19 L8979.33 3206.16 L8979.37 5076.47 L7109.05 5076.5 L7109.02 3206.19 L7039.77 3136.94z"/>
     <path fill="#ECECEC" d="M7074.4 3171.56 L9013.98 3171.53 L9014.01 5111.11 L7074.43 5111.14 L7074.4 3171.56 L7143.66 3240.83 L8944.69 3240.8 L8944.72 5041.83 L7143.69 5041.86 L7143.66 3240.83 L7074.4 3171.56z"/>
     <path fill="#ECECEC" d="M7109.04 3206.21 L8979.33 3206.17 L8979.37 5076.47 L7109.07 5076.5 L7109.04 3206.21 L7178.3 3275.47 L8910.05 3275.44 L8910.08 5007.19 L7178.33 5007.22 L7178.3 3275.47 L7109.04 3206.21z"/>
     <path fill="#EDEDED" d="M7143.68 3240.85 L8944.69 3240.81 L8944.72 5041.83 L7143.71 5041.86 L7143.68 3240.85 L7212.93 3310.1 L8875.43 3310.07 L8875.46 4972.56 L7212.96 4972.6 L7212.93 3310.1 L7143.68 3240.85z"/>
     <path fill="#EEEEEE" d="M7178.3 3275.47 L8910.07 3275.44 L8910.1 5007.21 L7178.33 5007.24 L7178.3 3275.47 L7247.57 3344.74 L8840.79 3344.71 L8840.82 4937.92 L7247.6 4937.96 L7247.57 3344.74 L7178.3 3275.47z"/>
     <path fill="#EFEFEF" d="M7212.94 3310.11 L8875.43 3310.08 L8875.46 4972.56 L7212.97 4972.6 L7212.94 3310.11 L7282.19 3379.36 L8806.16 3379.33 L8806.19 4903.3 L7282.23 4903.33 L7282.19 3379.36 L7212.94 3310.11z"/>
     <path fill="#EFEFEF" d="M7247.57 3344.74 L8840.8 3344.71 L8840.83 4937.94 L7247.6 4937.97 L7247.57 3344.74 L7316.84 3414 L8771.52 3413.97 L8771.55 4868.66 L7316.87 4868.69 L7316.84 3414 L7247.57 3344.74z"/>
     <path fill="#F0F0F0" d="M7282.21 3379.38 L8806.16 3379.35 L8806.19 4903.3 L7282.24 4903.33 L7282.21 3379.38 L7351.48 3448.64 L8736.88 3448.61 L8736.91 4834.02 L7351.51 4834.05 L7351.48 3448.64 L7282.21 3379.38z"/>
     <path fill="#F1F1F1" d="M7316.85 3414.02 L8771.52 3413.99 L8771.55 4868.66 L7316.88 4868.69 L7316.85 3414.02 L7386.12 3483.25 L8702.27 3483.25 L8702.27 4799.41 L7386.12 4799.41 L7386.12 3483.25 L7316.85 3414.02z"/>
     <path fill="#F1F1F1" d="M7351.48 3448.64 L8736.89 3448.61 L8736.93 4834.03 L7351.51 4834.06 L7351.48 3448.64 L7420.76 3517.9 L8667.63 3517.9 L8667.63 4764.77 L7420.76 4764.77 L7420.76 3517.9 L7351.48 3448.64z"/>
     <path fill="#F2F2F2" d="M7386.13 3483.27 L8702.27 3483.27 L8702.27 4799.41 L7386.13 4799.41 L7386.13 3483.27 L7455.4 3552.54 L8632.99 3552.54 L8632.99 4730.13 L7455.4 4730.13 L7455.4 3552.54 L7386.13 3483.27z"/>
     <path fill="#F3F3F3" d="M7420.77 3517.91 L8667.63 3517.91 L8667.63 4764.77 L7420.77 4764.77 L7420.77 3517.91 L7490.02 3587.16 L8598.36 3587.16 L8598.36 4695.5 L7490.02 4695.5 L7490.02 3587.16 L7420.77 3517.91z"/>
     <path fill="#F4F4F4" d="M7455.4 3552.54 L8633 3552.54 L8633 4730.14 L7455.4 4730.14 L7455.4 3552.54 L7524.67 3621.8 L8563.72 3621.8 L8563.72 4660.86 L7524.67 4660.86 L7524.67 3621.8 L7455.4 3552.54z"/>
     <path fill="#F4F4F4" d="M7490.04 3587.18 L8598.36 3587.18 L8598.36 4695.5 L7490.04 4695.5 L7490.04 3587.18 L7559.31 3656.44 L8529.08 3656.44 L8529.08 4626.22 L7559.31 4626.22 L7559.31 3656.44 L7490.04 3587.18z"/>
     <path fill="whitesmoke" d="M7524.68 3621.82 L8563.72 3621.82 L8563.72 4660.86 L7524.68 4660.86 L7524.68 3621.82 L7593.93 3691.07 L8494.46 3691.07 L8494.46 4591.59 L7593.93 4591.59 L7593.93 3691.07 L7524.68 3621.82z"/>
     <path fill="#F6F6F6" d="M7559.31 3656.44 L8529.1 3656.44 L8529.1 4626.23 L7559.31 4626.23 L7559.31 3656.44 L7628.57 3725.71 L8459.81 3725.71 L8459.81 4556.95 L7628.57 4556.95 L7628.57 3725.71 L7559.31 3656.44z"/>
     <path fill="#F6F6F6" d="M7593.95 3691.08 L8494.46 3691.08 L8494.46 4591.59 L7593.95 4591.59 L7593.95 3691.08 L7663.21 3760.35 L8425.17 3760.35 L8425.17 4522.31 L7663.21 4522.31 L7663.21 3760.35 L7593.95 3691.08z"/>
     <path fill="#F7F7F7" d="M7628.59 3725.73 L8459.81 3725.73 L8459.81 4556.95 L7628.59 4556.95 L7628.59 3725.73 L7697.84 3794.98 L8390.55 3794.98 L8390.55 4487.69 L7697.84 4487.69 L7697.84 3794.98 L7628.59 3725.73z"/>
     <path fill="#F8F8F8" d="M7663.21 3760.35 L8425.19 3760.35 L8425.19 4522.33 L7663.21 4522.33 L7663.21 3760.35 L7732.48 3829.62 L8355.91 3829.62 L8355.91 4453.04 L7732.48 4453.04 L7732.48 3829.62 L7663.21 3760.35z"/>
     <path fill="#F9F9F9" d="M7697.85 3794.99 L8390.55 3794.99 L8390.55 4487.69 L7697.85 4487.69 L7697.85 3794.99 L7767.12 3864.26 L8321.27 3864.26 L8321.27 4418.4 L7767.12 4418.4 L7767.12 3864.26 L7697.85 3794.99z"/>
     <path fill="#F9F9F9" d="M7732.5 3829.63 L8355.91 3829.63 L8355.91 4453.04 L7732.5 4453.04 L7732.5 3829.63 L7801.75 3898.88 L8286.64 3898.88 L8286.64 4383.78 L7801.75 4383.78 L7801.75 3898.88 L7732.5 3829.63z"/>
     <path fill="#FAFAFA" d="M7767.12 3864.26 L8321.28 3864.26 L8321.28 4418.42 L7767.12 4418.42 L7767.12 3864.26 L7836.39 3933.52 L8252 3933.52 L8252 4349.14 L7836.39 4349.14 L7836.39 3933.52 L7767.12 3864.26z"/>
     <path fill="#FBFBFB" d="M7801.76 3898.9 L8286.64 3898.9 L8286.64 4383.78 L7801.76 4383.78 L7801.76 3898.9 L7871.03 3968.17 L8217.36 3968.17 L8217.36 4314.5 L7871.03 4314.5 L7871.03 3968.17 L7801.76 3898.9z"/>
     <path fill="#FBFBFB" d="M7836.4 3933.54 L8252 3933.54 L8252 4349.14 L7836.4 4349.14 L7836.4 3933.54 L7905.65 4002.79 L8182.73 4002.79 L8182.73 4279.87 L7905.65 4279.87 L7905.65 4002.79 L7836.4 3933.54z"/>
     <path fill="#FCFCFC" d="M7871.03 3968.17 L8217.37 3968.17 L8217.37 4314.51 L7871.03 4314.51 L7871.03 3968.17 L7940.29 4037.43 L8148.09 4037.43 L8148.09 4245.23 L7940.29 4245.23 L7940.29 4037.43 L7871.03 3968.17z"/>
     <path fill="#FDFDFD" d="M7905.67 4002.81 L8182.73 4002.81 L8182.73 4279.87 L7905.67 4279.87 L7905.67 4002.81 L7974.93 4072.07 L8113.45 4072.07 L8113.45 4210.59 L7974.93 4210.59 L7974.93 4072.07 L7905.67 4002.81z"/>
     <path fill="#FEFEFE" d="M7940.31 4037.45 L8148.09 4037.45 L8148.09 4245.23 L7940.31 4245.23 L7940.31 4037.45 L8009.56 4106.7 L8078.83 4106.7 L8078.83 4175.96 L8009.56 4175.96 L8009.56 4106.7 L7940.31 4037.45z"/>
     <path fill="#FEFEFE" d="M7974.93 4072.07 L8113.47 4072.07 L8113.47 4210.6 L7974.93 4210.6 L7974.93 4072.07 L8044.2 4141.34 L8044.19 4141.34 L8044.19 4141.32 L8044.2 4141.32 L8044.2 4141.34 L7974.93 4072.07z"/>
     <path fill="white" d="M8009.58 4106.71 L8078.83 4106.71 L8078.83 4175.96 L8009.58 4175.96 L8009.58 4106.71 L8009.58 4106.71z"/>
    </mask>
 </defs>
 <g id="Camada_x0020_1">
  <metadata id="CorelCorpID_0Corel-Layer"/>
  <g id="_2456574726336">
   <g style="clip-path:url(#id0)">
    <image style="clip-path:url(#id1)" transform="matrix(-0.73804 -0 -0 0.73804 16088.4 0)" x="0" y="0" width="21798.82" height="15853.69" xlink:href="linhas-rede_Images\linhas-rede_ImgID1.jpg"/>
   </g>
   <polygon class="fil0" style="mask:url(#id2)" points="-0,0 16088.4,0 16088.4,8282.69 -0,8282.69 "/>
  </g>
 </g>
</svg>
