<svg width="1427" height="78" viewBox="0 0 1427 78" fill="none" xmlns="http://www.w3.org/2000/svg">
<g clip-path="url(#clip0_158_72)">
<path fill-rule="evenodd" clip-rule="evenodd" d="M-11.6323 14.0109C50.342 32.7523 112.318 51.4954 175.286 55.306C238.252 59.1165 302.212 47.9962 343.641 42.038C385.07 36.0806 403.967 35.2871 433.767 42.2372C463.566 49.1873 504.268 63.8819 551.148 70.2369C598.027 76.5918 651.086 74.6055 700.509 67.0602C749.933 59.5141 795.723 46.4074 833.517 36.6395C871.312 26.8716 901.111 20.4408 930.003 17.2262C958.894 14.0117 986.876 14.0117 1019.95 18.4174C1053.02 22.8239 1091.17 31.637 1129.7 44.1856C1168.22 56.7342 1207.1 73.0176 1242.19 76.9894C1277.27 80.9613 1308.56 72.6208 1331.81 62.6916C1355.07 52.7624 1370.3 41.2452 1382.46 32.8668C1394.62 24.4885 1403.71 19.2497 1412.79 14.0125H-11.6316L-11.6323 14.0109Z" fill="#BBCCDA" fill-opacity="0.45098"/>
<path fill-rule="evenodd" clip-rule="evenodd" d="M1425.13 14.0109C1362.6 32.7523 1300.08 51.4954 1236.55 55.306C1173.02 59.1165 1108.49 47.9962 1066.69 42.038C1024.89 36.0806 1005.82 35.2871 975.758 42.2372C945.692 49.1873 904.628 63.8819 857.329 70.2369C810.031 76.5918 756.501 74.6055 706.636 67.0602C656.772 59.5141 610.573 46.4074 572.441 36.6395C534.309 26.8716 504.244 20.4408 475.095 17.2262C445.946 14.0117 417.714 14.0117 384.349 18.4174C350.983 22.8239 312.485 31.637 273.619 44.1856C234.754 56.7342 195.522 73.0176 160.125 76.9894C124.728 80.9613 93.1648 72.6208 69.699 62.6916C46.2339 52.7624 30.8648 41.2452 18.5977 32.8668C6.32996 24.4885 -2.83708 19.2497 -12 14.0125H1425.13V14.0109Z" fill="#BBCCDA" fill-opacity="0.45098"/>
<path fill-rule="evenodd" clip-rule="evenodd" d="M1427 14.0108C1365.9 24.7118 1304.79 35.4128 1242.71 37.5879C1180.63 39.7637 1117.57 33.4144 1076.73 30.0127C1035.88 26.611 1017.25 26.1578 987.871 30.1264C958.491 34.095 918.361 42.4847 872.142 46.113C825.922 49.7413 773.61 48.6074 724.883 44.2993C676.155 39.9911 631.009 32.5079 593.747 26.9304C556.483 21.3537 527.103 17.6819 498.619 15.8463C470.134 14.0108 442.547 14.0108 409.942 16.5254C377.337 19.0416 339.716 24.0739 301.737 31.2385C263.757 38.4032 225.42 47.7001 190.83 49.9671C156.24 52.2349 125.396 47.4727 102.466 41.8041C79.5353 36.1354 64.5166 29.5587 52.5293 24.7755C40.542 19.9916 31.5841 17.0004 22.6289 14.01H1427V14.0108Z" fill="#BBCCDA"/>
<path d="M1427 0H-12V14.0107H1427V0Z" fill="#BBCCDA"/>
</g>
<defs>
<clipPath id="clip0_158_72">
<rect width="1439" height="78" fill="white" transform="translate(-12)"/>
</clipPath>
</defs>
</svg>
