<svg width="1440" height="78" viewBox="0 0 1440 78" fill="none" xmlns="http://www.w3.org/2000/svg">
<g clip-path="url(#clip0_157_58)">
<path fill-rule="evenodd" clip-rule="evenodd" d="M0.367676 14.0109C62.3851 32.7523 124.404 51.4954 187.416 55.306C250.426 59.1165 314.43 47.9962 355.888 42.038C397.345 36.0806 416.255 35.2871 446.076 42.2372C475.897 49.1873 516.626 63.8819 563.539 70.2369C610.451 76.5918 663.546 74.6055 713.004 67.0602C762.462 59.5141 808.284 46.4074 846.105 36.6395C883.926 26.8716 913.746 20.4408 942.658 17.2262C971.569 14.0117 999.57 14.0117 1032.66 18.4174C1065.76 22.8239 1103.94 31.637 1142.49 44.1856C1181.04 56.7342 1219.95 73.0176 1255.06 76.9894C1290.17 80.9613 1321.47 72.6208 1344.75 62.6916C1368.02 52.7624 1383.26 41.2452 1395.43 32.8668C1407.6 24.4885 1416.69 19.2497 1425.78 14.0125H0.368362L0.367676 14.0109Z" fill="#F6CBB5" fill-opacity="0.45098"/>
<path fill-rule="evenodd" clip-rule="evenodd" d="M1438.13 14.0109C1375.56 32.7523 1312.99 51.4954 1249.41 55.306C1185.84 59.1165 1121.26 47.9962 1079.44 42.038C1037.61 36.0806 1018.53 35.2871 988.444 42.2372C958.358 49.1873 917.265 63.8819 869.933 70.2369C822.603 76.5918 769.035 74.6055 719.136 67.0602C669.237 59.5141 623.005 46.4074 584.847 36.6395C546.689 26.8716 516.602 20.4408 487.433 17.2262C458.264 14.0117 430.012 14.0117 396.624 18.4174C363.235 22.8239 324.71 31.637 285.818 44.1856C246.925 56.7342 207.666 73.0176 172.244 76.9894C136.823 80.9613 105.238 72.6208 81.7558 62.6916C58.2744 52.7624 42.8945 41.2452 30.619 32.8668C18.3427 24.4885 9.16929 19.2497 0 14.0125H1438.13V14.0109Z" fill="#F6CBB5" fill-opacity="0.45098"/>
<path fill-rule="evenodd" clip-rule="evenodd" d="M1440 14.0108C1378.86 24.7118 1317.71 35.4128 1255.58 37.5879C1193.46 39.7637 1130.36 33.4144 1089.48 30.0127C1048.61 26.611 1029.97 26.1578 1000.57 30.1264C971.165 34.095 931.008 42.4847 884.756 46.113C838.504 49.7413 786.156 48.6074 737.395 44.2993C688.633 39.9911 643.456 32.5079 606.167 26.9304C568.878 21.3537 539.478 17.6819 510.974 15.8463C482.469 14.0108 454.863 14.0108 422.235 16.5254C389.607 19.0416 351.961 24.0739 313.955 31.2385C275.949 38.4032 237.585 47.7001 202.971 49.9671C168.357 52.2349 137.491 47.4727 114.545 41.8041C91.5988 36.1354 76.5696 29.5587 64.574 24.7755C52.5783 19.9916 43.6142 17.0004 34.6528 14.01H1440V14.0108Z" fill="#F6CBB5"/>
<path d="M1440 0H0V14.0107H1440V0Z" fill="#F6CBB5"/>
</g>
<defs>
<clipPath id="clip0_157_58">
<rect width="1440" height="78" fill="white"/>
</clipPath>
</defs>
</svg>
