<svg width="1440" height="78" viewBox="0 0 1440 78" fill="none" xmlns="http://www.w3.org/2000/svg">
<g clip-path="url(#clip0_157_65)">
<path fill-rule="evenodd" clip-rule="evenodd" d="M1439.63 63.9891C1377.61 45.2477 1315.6 26.5046 1252.58 22.694C1189.57 18.8835 1125.57 30.0038 1084.11 35.962C1042.65 41.9194 1023.74 42.7129 993.924 35.7628C964.103 28.8127 923.374 14.1181 876.461 7.76312C829.549 1.40817 776.454 3.39449 726.996 10.9398C677.538 18.4859 631.716 31.5926 593.895 41.3605C556.074 51.1284 526.254 57.5592 497.342 60.7738C468.431 63.9883 440.43 63.9883 407.337 59.5826C374.243 55.1761 336.059 46.363 297.51 33.8144C258.962 21.2658 220.05 4.98243 184.942 1.01058C149.833 -2.96127 118.527 5.37921 95.2536 15.3084C71.9794 25.2376 56.7354 36.7548 44.5683 45.1332C32.4011 53.5115 23.3092 58.7503 14.2209 63.9875L1439.63 63.9875L1439.63 63.9891Z" fill="#F6CBB5" fill-opacity="0.45098"/>
<path fill-rule="evenodd" clip-rule="evenodd" d="M1.86994 63.9891C64.4411 45.2477 127.013 26.5046 190.587 22.694C254.16 18.8835 318.735 30.0038 360.563 35.962C402.39 41.9194 421.468 42.7129 451.556 35.7628C481.642 28.8127 522.735 14.1181 570.067 7.76312C617.397 1.40817 670.965 3.39449 720.864 10.9398C770.763 18.4859 816.995 31.5926 855.153 41.3605C893.311 51.1284 923.398 57.5592 952.567 60.7738C981.736 63.9883 1009.99 63.9883 1043.38 59.5826C1076.76 55.1761 1115.29 46.363 1154.18 33.8144C1193.07 21.2658 1232.33 4.98243 1267.76 1.01058C1303.18 -2.96127 1334.76 5.37921 1358.24 15.3084C1381.73 25.2376 1397.11 36.7548 1409.38 45.1332C1421.66 53.5115 1430.83 58.7503 1440 63.9875L1.86994 63.9875V63.9891Z" fill="#F6CBB5" fill-opacity="0.45098"/>
<path fill-rule="evenodd" clip-rule="evenodd" d="M7.00087e-05 63.9892C61.1447 53.2882 122.29 42.5872 184.415 40.4121C246.539 38.2363 309.642 44.5856 350.516 47.9873C391.39 51.389 410.034 51.8422 439.434 47.8736C468.835 43.905 508.992 35.5153 555.244 31.887C601.496 28.2587 653.844 29.3926 702.605 33.7007C751.367 38.0089 796.544 45.4921 833.833 51.0696C871.122 56.6463 900.522 60.3181 929.026 62.1537C957.531 63.9892 985.137 63.9892 1017.76 61.4746C1050.39 58.9584 1088.04 53.9261 1126.05 46.7615C1164.05 39.5968 1202.42 30.2999 1237.03 28.0329C1271.64 25.7651 1302.51 30.5273 1325.46 36.1959C1348.4 41.8646 1363.43 48.4413 1375.43 53.2245C1387.42 58.0084 1396.39 60.9996 1405.35 63.99L7.00087e-05 63.99V63.9892Z" fill="#F6CBB5"/>
<path d="M0 78L1440 78V63.9893L0 63.9893V78Z" fill="#F6CBB5"/>
</g>
<defs>
<clipPath id="clip0_157_65">
<rect width="1440" height="78" fill="white" transform="matrix(-1 0 0 -1 1440 78)"/>
</clipPath>
</defs>
</svg>
