<svg width="147" height="78" viewBox="0 0 147 78" fill="none" xmlns="http://www.w3.org/2000/svg">
<g clip-path="url(#clip0_129_597)">
<path fill-rule="evenodd" clip-rule="evenodd" d="M55.4714 13.0885C71.6093 12.8606 88.8747 16.7666 102.365 22.4652C115.857 28.164 125.573 35.6547 131.327 41.5201C137.081 47.3855 138.872 51.6259 139.767 53.7463C140.662 55.8668 140.662 55.8668 140.3 56.5551C139.938 57.2441 139.214 58.6217 129.266 60.9629C119.318 63.3042 100.147 66.6086 81.4012 64.7811C62.6555 62.9536 44.3363 55.9938 32.1806 49.5604C20.0243 43.1268 14.0311 37.2208 10.6418 33.2702C7.25192 29.3189 6.46576 27.3236 6.07326 26.3264C5.6801 25.3291 5.6801 25.3291 6.28535 24.7804C6.89059 24.2318 8.10093 23.1352 16.2118 20.4064C24.3221 17.6775 39.333 13.3157 55.4714 13.0885Z" fill="#E69D79"/>
<path d="M45.9279 25.1359C46.8718 25.3494 47.5485 25.8826 47.9593 26.7356C48.3695 27.5884 48.4415 28.6047 48.1749 29.7829C47.9113 30.9481 47.4068 31.8196 46.6614 32.3973C45.9166 32.9752 45.0663 33.1553 44.112 32.9394L40.9749 32.2297C40.9321 32.22 40.9047 32.2419 40.8925 32.2958L39.5381 38.2825C39.5078 38.4164 39.4388 38.4712 39.3318 38.447L38.5111 38.2613C38.4035 38.237 38.3655 38.158 38.3958 38.024L41.4908 24.3433C41.5211 24.2093 41.5901 24.1545 41.6971 24.1787L45.9285 25.136L45.9279 25.1359ZM44.2996 31.7366C44.9324 31.8797 45.5024 31.7517 46.0105 31.3526C46.5178 30.9534 46.8624 30.352 47.0441 29.5489C47.2289 28.7322 47.1791 28.0306 46.8944 27.4454C46.6097 26.8602 46.151 26.496 45.5176 26.3527L42.4603 25.661C42.4175 25.6513 42.3901 25.6731 42.3779 25.7271L41.1962 30.9504C41.1841 31.0037 41.1995 31.0352 41.2423 31.0449L44.2996 31.7366ZM54.5518 41.891C54.4552 41.8691 54.4016 41.8078 54.3904 41.7068L53.4343 34.9439C53.4331 34.9013 53.4156 34.8761 53.3838 34.8689L50.6487 34.2501C50.6059 34.2404 50.5784 34.2623 50.5662 34.3162L49.1755 40.4635C49.1452 40.5974 49.0763 40.6522 48.9693 40.628L48.1485 40.4423C48.0409 40.418 48.0029 40.339 48.0332 40.205L51.1237 26.5444C51.154 26.4105 51.2223 26.3556 51.33 26.3799L55.4972 27.3227C56.4197 27.5314 57.0842 28.0583 57.4907 28.9035C57.8971 29.7487 57.9703 30.7474 57.7098 31.899C57.4977 32.8366 57.1139 33.5871 56.5576 34.1516C56.0014 34.7154 55.3535 35.0124 54.6143 35.042C54.5654 35.059 54.5468 35.0903 54.5592 35.1348L55.573 41.8684C55.5779 41.8976 55.5755 41.9326 55.5665 41.9722C55.5453 42.0659 55.492 42.103 55.4064 42.0836L54.5532 41.8906L54.5518 41.891ZM52.094 27.8617C52.0512 27.852 52.0237 27.8738 52.0117 27.9271L50.8618 33.0099C50.8496 33.0639 50.8649 33.0954 50.9077 33.1051L53.9002 33.7821C54.5226 33.9229 55.0809 33.7956 55.5763 33.4012C56.0718 33.0062 56.4068 32.4203 56.5824 31.6439C56.7582 30.8669 56.7082 30.1905 56.433 29.6143C56.1573 29.0379 55.7089 28.6795 55.0865 28.5387L52.094 27.8617ZM61.2733 43.5804C60.5115 43.4081 59.8852 43.062 59.3941 42.5429C58.9023 42.0236 58.5779 41.376 58.4206 40.6016C58.2632 39.8271 58.2892 38.9772 58.4982 38.0533L59.6436 32.9906C59.8526 32.0666 60.1948 31.289 60.6704 30.657C61.1458 30.0257 61.7173 29.5809 62.3847 29.3238C63.0515 29.0666 63.7658 29.0238 64.5275 29.1961C65.2893 29.3685 65.9182 29.7151 66.4145 30.2355C66.9115 30.756 67.2385 31.4041 67.3958 32.1785C67.5532 32.953 67.5272 33.8029 67.3181 34.7269L66.1728 39.7895C65.9638 40.7135 65.6215 41.4911 65.146 42.1231C64.6706 42.7544 64.0965 43.1987 63.4239 43.4546C62.7513 43.7105 62.0344 43.7526 61.2733 43.5804ZM61.5506 42.3548C62.3655 42.5391 63.09 42.3791 63.7227 41.8749C64.3553 41.3708 64.7872 40.6093 65.0175 39.5917L66.1809 34.4491C66.4113 33.4308 66.3498 32.555 65.9973 31.8205C65.6449 31.0859 65.0612 30.6265 64.2457 30.442C63.4411 30.26 62.7217 30.4246 62.0874 30.9359C61.4532 31.4472 61.0207 32.2113 60.7903 33.2295L59.6269 38.3722C59.3966 39.3898 59.4587 40.263 59.8128 40.9904C60.1668 41.7177 60.746 42.1728 61.5506 42.3548ZM70.7501 45.7244C70.0208 45.5594 69.419 45.2401 68.9454 44.7673C68.4719 44.2938 68.1567 43.7051 68.0004 43.0012C67.8441 42.2974 67.8596 41.5299 68.0474 40.6996L68.3928 39.1729C68.4231 39.0389 68.4921 38.9841 68.5991 39.0083L69.4198 39.194C69.5274 39.2184 69.5655 39.2974 69.5352 39.4313L69.1897 40.958C68.9897 41.8423 69.0567 42.6066 69.3897 43.252C69.7228 43.8974 70.2702 44.3063 71.032 44.4786C71.7827 44.6484 72.4502 44.5144 73.0338 44.0764C73.6174 43.6384 74.0096 42.9773 74.2095 42.0937L76.432 32.2701C76.4623 32.1361 76.5312 32.0813 76.6382 32.1055L77.4589 32.2912C77.5659 32.3154 77.6046 32.3945 77.5743 32.5285L75.3518 42.3521C75.164 43.1824 74.845 43.8813 74.3958 44.4481C73.946 45.0148 73.4054 45.4099 72.7742 45.6335C72.143 45.8571 71.4684 45.8869 70.7495 45.7243L70.7501 45.7244ZM87.6972 35.7052C87.6669 35.8391 87.598 35.8939 87.491 35.8697L81.5701 34.5302C81.5273 34.5205 81.4999 34.5423 81.4878 34.5957L80.3651 39.5582C80.3531 39.6115 80.3683 39.6437 80.4111 39.6533L84.5621 40.5924C84.6691 40.6166 84.7077 40.6958 84.6774 40.8297L84.4865 41.6737C84.4562 41.8077 84.3872 41.8625 84.2803 41.8383L80.1292 40.8992C80.0864 40.8895 80.059 40.9113 80.0469 40.9646L78.9062 46.0071C78.8941 46.0604 78.9093 46.0926 78.9521 46.1023L84.873 47.4418C84.98 47.466 85.0186 47.5451 84.9883 47.6791L84.7974 48.5231C84.7671 48.657 84.6981 48.7118 84.5911 48.6876L77.6245 47.1115C77.5176 47.0873 77.4789 47.0082 77.5092 46.8742L80.5997 33.2136C80.63 33.0797 80.699 33.0249 80.806 33.0491L87.7726 34.6252C87.8795 34.6494 87.9182 34.7285 87.8879 34.8625L87.6969 35.7065L87.6972 35.7052ZM97.1693 36.7497C97.2769 36.774 97.3149 36.853 97.2846 36.987L97.0893 37.8505C97.0589 37.9844 96.99 38.0392 96.883 38.015L93.7297 37.3016C93.6869 37.292 93.6595 37.3138 93.6473 37.3677L90.8158 49.8833C90.7855 50.0172 90.7165 50.072 90.6096 50.0478L89.7888 49.8622C89.6819 49.838 89.6432 49.7588 89.6735 49.6249L92.505 37.1093C92.517 37.056 92.5018 37.0238 92.459 37.0142L89.4341 36.3298C89.3271 36.3056 89.2885 36.2265 89.3188 36.0925L89.5141 35.229C89.5444 35.0951 89.6134 35.0403 89.7203 35.0645L97.1699 36.7498L97.1693 36.7497ZM99.0199 52.1194C98.2582 51.947 97.6318 51.601 97.1407 51.0818C96.6496 50.5627 96.3252 49.9151 96.1678 49.1406C96.0105 48.3662 96.0365 47.5163 96.2455 46.5923L97.3909 41.5297C97.5999 40.6057 97.9421 39.8281 98.4176 39.1961C98.893 38.5648 99.4646 38.1199 100.131 37.8627C100.798 37.6055 101.513 37.5629 102.274 37.7351C103.036 37.9074 103.665 38.2541 104.162 38.7746C104.659 39.295 104.986 39.9432 105.143 40.7176C105.3 41.4921 105.274 42.342 105.065 43.2659L103.92 48.3286C103.711 49.2526 103.369 50.0302 102.893 50.6622C102.418 51.2935 101.844 51.7378 101.171 51.9936C100.499 52.2495 99.7817 52.2917 99.0199 52.1194ZM99.2972 50.8937C100.113 51.0782 100.837 50.918 101.469 50.4138C102.102 49.9097 102.534 49.1482 102.764 48.1306L103.928 42.988C104.158 41.9697 104.096 41.0939 103.744 40.3594C103.392 39.6249 102.808 39.1654 101.992 38.9809C101.188 38.7989 100.468 38.9635 99.8341 39.4748C99.1998 39.9861 98.7679 40.7504 98.5376 41.7686L97.3741 46.9112C97.1439 47.9288 97.2054 48.8019 97.5594 49.5293C97.9135 50.2567 98.4927 50.7117 99.2972 50.8937ZM108.802 54.3324C107.59 54.0582 106.71 53.5003 106.162 52.658C105.614 51.8156 105.468 50.8258 105.726 49.6872L105.867 49.0643C105.897 48.9304 105.966 48.8756 106.073 48.8998L106.861 49.0781C106.968 49.1023 107.007 49.1815 106.977 49.3154L106.854 49.8577C106.678 50.6347 106.794 51.3191 107.201 51.9109C107.608 52.5026 108.268 52.902 109.18 53.1083C110.006 53.2952 110.683 53.2193 111.21 52.8814C111.738 52.5435 112.083 52.0127 112.247 51.289C112.353 50.8202 112.345 50.3959 112.222 50.0162C112.1 49.6364 111.865 49.2525 111.519 48.8645C111.172 48.4765 110.667 48.0034 110.005 47.4448C109.291 46.8609 108.746 46.3678 108.369 45.9661C107.992 45.5643 107.72 45.0942 107.554 44.557C107.388 44.0198 107.387 43.3893 107.551 42.6663C107.805 41.5414 108.317 40.7385 109.085 40.2575C109.854 39.7766 110.785 39.6597 111.879 39.9073C113.07 40.1767 113.929 40.7375 114.458 41.5892C114.987 42.4409 115.121 43.4425 114.86 44.5947L114.76 45.0368C114.73 45.1708 114.661 45.2256 114.554 45.2014L113.749 45.0194C113.642 44.9952 113.604 44.916 113.634 44.7821L113.716 44.4205C113.892 43.6435 113.791 42.9523 113.416 42.3465C113.04 41.7406 112.418 41.3395 111.549 41.1429C110.787 40.9706 110.159 41.0329 109.663 41.3288C109.168 41.6247 108.837 42.1411 108.67 42.8778C108.561 43.3603 108.57 43.7807 108.698 44.1403C108.825 44.4999 109.047 44.8386 109.364 45.1571C109.681 45.4756 110.184 45.9091 110.871 46.459C111.563 47.038 112.108 47.5557 112.507 48.0116C112.905 48.468 113.195 48.9807 113.377 49.5494C113.558 50.1181 113.567 50.7647 113.404 51.4878C113.149 52.6127 112.614 53.4347 111.797 53.954C110.98 54.4732 109.982 54.5994 108.802 54.3324Z" fill="white" stroke="white" stroke-width="0.287533" stroke-miterlimit="22.9256"/>
</g>
<defs>
<clipPath id="clip0_129_597">
<rect width="138.157" height="48.5827" fill="white" transform="translate(11.5312 0.0621338) rotate(12.7477)"/>
</clipPath>
</defs>
</svg>
