<svg width="107" height="62" viewBox="0 0 107 62" fill="none" xmlns="http://www.w3.org/2000/svg">
<g clip-path="url(#clip0_129_602)">
<path fill-rule="evenodd" clip-rule="evenodd" d="M33.3886 17.1431C43.8353 11.6588 56.3669 9.03757 67.0231 9.05996C77.6799 9.08114 86.4615 11.747 92.1292 14.4431C97.7963 17.1403 100.349 19.868 101.625 21.2322C102.902 22.5964 102.902 22.5964 102.891 23.2543C102.879 23.9122 102.858 25.2278 97.1374 30.3306C91.4167 35.4324 79.9982 44.3213 67.1803 49.055C54.3625 53.7887 40.1464 54.368 30.1199 53.3327C20.0934 52.2974 14.2565 49.6474 10.7566 47.6714C7.25576 45.6956 6.09174 44.3927 5.50984 43.7418C4.92794 43.0908 4.92794 43.0908 5.14347 42.4633C5.359 41.8358 5.78984 40.5797 10.186 35.7775C14.5822 30.9753 22.943 22.6282 33.3897 17.1439L33.3886 17.1431Z" fill="#F89C61"/>
<path d="M39.098 25.6818C40.033 25.4862 40.873 25.7522 41.6177 26.4787C42.3625 27.2052 42.8795 28.2576 43.1674 29.6342C43.4524 30.9963 43.3919 32.1524 42.9862 33.1034C42.5814 34.0542 41.9054 34.6287 40.9599 34.8265L37.8531 35.4763C37.8105 35.4852 37.7963 35.5215 37.8092 35.5833L39.2728 42.5804C39.3055 42.7369 39.2689 42.8262 39.1627 42.8484L38.3504 43.0183C38.2443 43.0405 38.1748 42.9734 38.1421 42.8169L34.7974 26.8264C34.7646 26.6699 34.8013 26.5805 34.9074 26.5583L39.098 25.6818ZM40.5918 33.457C41.2189 33.3258 41.6689 32.934 41.9425 32.2804C42.2161 31.6267 42.2546 30.8299 42.0582 29.8909C41.8586 28.9365 41.5014 28.2095 40.9872 27.7131C40.4728 27.2157 39.9026 27.033 39.2755 27.1642L36.2478 27.7975C36.2052 27.8064 36.191 27.8427 36.2039 27.9045L37.481 34.0099C37.4942 34.0727 37.5215 34.0992 37.5641 34.0903L40.5918 33.457ZM50.9936 40.5704C49.7933 40.8215 48.7617 40.6203 47.899 39.9679C47.0363 39.3155 46.4657 38.3237 46.1872 36.9924L46.035 36.2645C46.0022 36.108 46.0389 36.0187 46.145 35.9965L46.9261 35.8331C47.0322 35.8109 47.1016 35.8781 47.1344 36.0346L47.267 36.6688C47.457 37.5769 47.8649 38.2556 48.4907 38.7039C49.1167 39.1533 49.8811 39.2836 50.7848 39.0945C51.6024 38.9235 52.171 38.5391 52.4891 37.9417C52.808 37.3442 52.8786 36.6223 52.7017 35.777C52.5872 35.2293 52.3907 34.7803 52.1123 34.4302C51.8339 34.0801 51.4543 33.7758 50.9734 33.5164C50.4924 33.257 49.8324 32.9792 48.9938 32.6807C48.0989 32.3779 47.3946 32.0964 46.8799 31.8365C46.3653 31.5766 45.9146 31.197 45.5278 30.6976C45.141 30.1982 44.8589 29.5265 44.6821 28.6812C44.4071 27.3664 44.5039 26.2801 44.9736 25.4221C45.4423 24.5643 46.2187 24.0226 47.3024 23.7959C48.4818 23.5492 49.4958 23.7616 50.3463 24.4337C51.1968 25.1058 51.7628 26.1147 52.0443 27.4604L52.1524 27.9773C52.1851 28.1337 52.1484 28.2231 52.0423 28.2453L51.2456 28.4119C51.1395 28.4341 51.0701 28.367 51.0373 28.2105L50.949 27.7884C50.7591 26.8803 50.3618 26.1875 49.7578 25.7088C49.153 25.2303 48.421 25.0814 47.5608 25.2614C46.8067 25.4191 46.2748 25.7668 45.9663 26.3052C45.6577 26.8437 45.5933 27.5428 45.7735 28.4045C45.8913 28.9677 46.0872 29.4136 46.3606 29.74C46.6341 30.0665 46.9831 30.3287 47.4065 30.526C47.83 30.7233 48.4707 30.9611 49.327 31.2398C50.201 31.547 50.9164 31.8552 51.4746 32.1629C52.032 32.4708 52.5187 32.888 52.9337 33.4137C53.3487 33.9395 53.6447 34.6255 53.8215 35.4708C54.0965 36.7856 53.9863 37.9037 53.4916 38.8239C52.9968 39.7441 52.1645 40.3265 50.9964 40.5709L50.9936 40.5704ZM57.8363 21.7623C58.7713 21.5667 59.6113 21.8327 60.3561 22.5592C61.1008 23.2857 61.6178 24.3381 61.9058 25.7147C62.1907 27.0768 62.1302 28.2329 61.7245 29.1839C61.3188 30.1349 60.6437 30.7092 59.6983 30.907L56.5906 31.557C56.5479 31.5659 56.5337 31.6022 56.5467 31.664L58.0102 38.661C58.043 38.8175 58.0063 38.9069 57.9002 38.9291L57.0869 39.0992C56.9808 39.1214 56.9114 39.0542 56.8787 38.8977L53.5339 22.9072C53.5012 22.7507 53.5379 22.6614 53.644 22.6392L57.8345 21.7627L57.8363 21.7623ZM59.3301 29.5375C59.9572 29.4063 60.4072 29.0145 60.6808 28.3609C60.9545 27.7072 60.9921 26.9106 60.7957 25.9716C60.596 25.0172 60.2388 24.2902 59.7255 23.7936C59.2111 23.2962 58.6409 23.1135 58.0138 23.2447L54.9862 23.878C54.9435 23.8869 54.9293 23.9232 54.9423 23.985L56.2193 30.0904C56.2325 30.1532 56.2598 30.1797 56.3024 30.1708L59.3301 29.5375ZM67.2698 19.7891C68.2048 19.5935 69.0448 19.8595 69.7896 20.586C70.5343 21.3125 71.0513 22.3649 71.3393 23.7415C71.6242 25.1036 71.5637 26.2597 71.158 27.2107C70.7523 28.1617 70.0772 28.736 69.1318 28.9337L66.025 29.5836C65.9823 29.5925 65.9681 29.6288 65.9811 29.6906L67.4446 36.6876C67.4774 36.8441 67.4407 36.9335 67.3346 36.9557L66.5222 37.1256C66.4161 37.1478 66.3467 37.0806 66.3139 36.9242L62.9692 20.9337C62.9365 20.7772 62.9731 20.6878 63.0793 20.6656L67.2698 19.7891ZM68.7636 27.5643C69.3907 27.4331 69.8407 27.0413 70.1144 26.3877C70.388 25.734 70.4265 24.9372 70.2301 23.9982C70.0304 23.0438 69.6732 22.3168 69.159 21.8204C68.6446 21.323 68.0744 21.1403 67.4473 21.2715L64.4197 21.9048C64.3771 21.9137 64.3629 21.95 64.3758 22.0117L65.6529 28.1172C65.666 28.18 65.6933 28.2065 65.7359 28.1976L68.7636 27.5643Z" fill="white" stroke="white" stroke-width="0.288215" stroke-miterlimit="22.9256"/>
</g>
<defs>
<clipPath id="clip0_129_602">
<rect width="99.9241" height="41.4711" fill="white" transform="translate(0.487854 21.4005) rotate(-11.8143)"/>
</clipPath>
</defs>
</svg>
