<svg width="168" height="76" viewBox="0 0 168 76" fill="none" xmlns="http://www.w3.org/2000/svg">
<g clip-path="url(#clip0_129_587)">
<path fill-rule="evenodd" clip-rule="evenodd" d="M53.7165 21.8663C71.0317 15.0259 91.2954 11.5261 108.238 11.2265C125.182 10.9273 138.804 13.8282 147.47 16.8617C156.135 19.8953 159.844 23.0619 161.698 24.6453C163.553 26.2286 163.553 26.2286 163.451 27.0114C163.349 27.7941 163.145 29.3592 153.394 35.6013C143.642 41.8433 124.344 52.7614 103.355 58.7818C82.3651 64.8022 59.6842 65.925 43.8734 64.9998C28.0626 64.0746 19.1215 61.1021 13.8086 58.8586C8.4957 56.6157 6.81156 55.1023 5.96957 54.3462C5.1275 53.5895 5.1275 53.5895 5.55081 52.8362C5.97413 52.0829 6.82025 50.5764 14.4271 44.7324C22.0334 38.8886 36.4004 28.7069 53.7155 21.8665L53.7165 21.8663Z" fill="#DEA85A"/>
<path d="M38.9662 39.3311C39.0694 39.3133 39.1321 39.3683 39.1542 39.4963L39.2969 40.3223C39.319 40.4503 39.2784 40.5232 39.1752 40.5411L36.1438 41.0646C36.1027 41.0717 36.0861 41.1009 36.095 41.1524L38.1614 53.1172C38.1835 53.2452 38.1429 53.3181 38.0402 53.3359L37.2511 53.4721C37.1479 53.49 37.0852 53.4349 37.0631 53.3069L34.9966 41.342C34.9878 41.291 34.9628 41.2686 34.9212 41.2758L32.0137 41.7779C31.9104 41.7958 31.8477 41.7407 31.8256 41.6127L31.683 40.7867C31.6609 40.6587 31.7015 40.5858 31.8047 40.5679L38.9657 39.3312L38.9662 39.3311ZM49.8716 51.292C49.7788 51.308 49.7094 51.2736 49.6629 51.1895L46.3613 45.6287C46.3446 45.5919 46.3203 45.5766 46.2897 45.5818L43.6604 46.0359C43.6193 46.043 43.6027 46.0722 43.6116 46.1237L44.6265 52.0001C44.6486 52.1281 44.608 52.201 44.5052 52.2188L43.7162 52.355C43.6129 52.3729 43.5508 52.3177 43.5287 52.1897L41.2732 39.1304C41.2511 39.0024 41.2917 38.9295 41.3944 38.9117L45.4003 38.2199C46.287 38.0667 47.0625 38.2855 47.7273 38.8761C48.392 39.4667 48.8194 40.3125 49.0095 41.4135C49.1643 42.3095 49.0999 43.1054 48.8163 43.8006C48.5326 44.4958 48.0713 44.9904 47.4321 45.2857C47.3954 45.3183 47.3904 45.3521 47.4176 45.387L50.7592 50.9013C50.7741 50.925 50.7846 50.9561 50.7913 50.9946C50.8067 51.0841 50.7734 51.1362 50.6907 51.1505L49.8711 51.292L49.8716 51.292ZM42.6051 39.9286C42.564 39.9357 42.5474 39.9649 42.5562 40.0158L43.3954 44.8748C43.4043 44.9263 43.4297 44.9481 43.4708 44.941L46.3477 44.4442C46.9458 44.3409 47.3907 44.0267 47.6821 43.5016C47.9734 42.9766 48.0554 42.3424 47.9272 41.6C47.7989 40.8575 47.509 40.2845 47.0568 39.8812C46.6051 39.4777 46.08 39.328 45.482 39.4312L42.605 39.9281L42.6051 39.9286ZM57.8839 37.0921C57.906 37.2201 57.8655 37.293 57.7622 37.3109L52.0705 38.2939C52.0294 38.301 52.0128 38.3301 52.0216 38.3811L52.8408 43.1245C52.8496 43.1755 52.8747 43.198 52.9163 43.1908L56.9066 42.5016C57.0098 42.4838 57.0725 42.5389 57.0946 42.6669L57.2339 43.4734C57.256 43.6014 57.2154 43.6743 57.1122 43.6921L53.1219 44.3813C53.0808 44.3884 53.0641 44.4175 53.0729 44.4685L53.9055 49.2889C53.9143 49.3399 53.9393 49.3624 53.9809 49.3552L59.6726 48.3722C59.7759 48.3544 59.8385 48.4095 59.8606 48.5375L59.9999 49.3439C60.022 49.4719 59.9815 49.5449 59.8782 49.5627L53.1814 50.7193C53.0782 50.7371 53.016 50.682 52.9939 50.554L50.7384 37.4946C50.7163 37.3666 50.7569 37.2937 50.8597 37.276L57.5564 36.1194C57.6597 36.1015 57.7224 36.1566 57.7445 36.2846L57.8838 37.0911L57.8839 37.0921ZM62.5392 49.1041C62.436 49.122 62.3733 49.0669 62.3512 48.9389L60.0957 35.8796C60.0736 35.7516 60.1142 35.6787 60.2175 35.6608L61.006 35.5246C61.1093 35.5068 61.1719 35.5619 61.194 35.6899L63.4495 48.7492C63.4716 48.8772 63.431 48.9501 63.3278 48.968L62.5392 49.1041ZM70.5512 34.0738C70.5291 33.9458 70.5696 33.8729 70.6729 33.8551L71.4619 33.7188C71.5652 33.701 71.6279 33.7561 71.65 33.8841L73.9055 46.9434C73.9276 47.0714 73.887 47.1443 73.7837 47.1621L73.0102 47.2957C72.938 47.3082 72.8686 47.2738 72.8015 47.1933L65.6866 37.4458C65.67 37.409 65.6517 37.3957 65.6317 37.4058C65.6123 37.4159 65.6057 37.4402 65.6122 37.4782L67.4553 48.0574C67.4774 48.1854 67.4369 48.2583 67.3336 48.2761L66.5451 48.4123C66.4418 48.4301 66.3791 48.3751 66.357 48.2471L64.1015 35.1877C64.0794 35.0597 64.12 34.9868 64.2233 34.969L64.9968 34.8354C65.069 34.8229 65.1384 34.8573 65.2055 34.9379L72.3204 44.6853C72.3375 44.722 72.3553 44.7354 72.3753 44.7253C72.3947 44.7152 72.4008 44.691 72.3943 44.653L70.5512 34.0738ZM83.2642 45.5248C83.1714 45.5408 83.1004 45.5005 83.0522 45.4033L82.0156 43.0902C81.9989 43.0534 81.9746 43.0381 81.944 43.0433L77.3196 43.842C77.2885 43.8474 77.2713 43.8699 77.2674 43.9102L77.0667 46.437C77.0534 46.5449 77.0005 46.6066 76.9078 46.6226L76.0726 46.7668C75.9593 46.7864 75.906 46.723 75.9124 46.5772L77.0718 32.908C77.0852 32.8001 77.1381 32.7385 77.2308 32.7225L78.2825 32.5408C78.3753 32.5248 78.4462 32.5651 78.4945 32.6623L84.1867 45.1482L84.2154 45.222C84.2309 45.3115 84.192 45.3645 84.0993 45.3805L83.2642 45.5248ZM77.3578 42.5893C77.3517 42.6167 77.3585 42.6386 77.3769 42.655C77.3958 42.6719 77.4155 42.6782 77.436 42.6747L81.4263 41.9855C81.4474 41.9819 81.4633 41.9694 81.4754 41.9472C81.4877 41.9255 81.4863 41.9026 81.4714 41.8789L78.1075 34.3908C78.093 34.367 78.0752 34.3567 78.0542 34.3603C78.0336 34.3639 78.0203 34.3795 78.0147 34.4068L77.3573 42.5894L77.3578 42.5893ZM90.9574 30.4903C90.9935 30.3919 91.0474 30.3362 91.1196 30.3238L91.9237 30.1849C92.027 30.1671 92.0896 30.2221 92.1117 30.3501L94.3672 43.4095C94.3893 43.5375 94.3487 43.6104 94.2455 43.6282L93.4564 43.7645C93.3532 43.7823 93.2905 43.7272 93.2684 43.5992L91.4242 32.9214C91.4176 32.8829 91.4031 32.8591 91.3798 32.8498C91.357 32.8403 91.3437 32.856 91.3399 32.8963L89.6481 38.1331C89.6119 38.2316 89.5581 38.2872 89.4859 38.2997L89.0838 38.3691C89.0116 38.3816 88.9433 38.3537 88.8784 38.2856L85.5348 33.9581C85.5176 33.9214 85.5004 33.9115 85.4815 33.9277C85.4632 33.9442 85.4571 33.9715 85.4638 34.01L87.298 44.6304C87.3201 44.7584 87.2795 44.8313 87.1762 44.8491L86.3877 44.9853C86.2844 45.0031 86.2218 44.9481 86.1996 44.8201L83.9442 31.7607C83.9221 31.6327 83.9627 31.5598 84.0659 31.542L84.87 31.4031C84.9527 31.3888 85.021 31.4167 85.0759 31.486L88.9287 36.4573C88.9414 36.4685 88.9581 36.4723 88.9786 36.4687C88.9992 36.4652 89.0136 36.456 89.0219 36.4412L90.9569 30.4904L90.9574 30.4903ZM102.15 29.4471C102.172 29.5751 102.131 29.648 102.028 29.6658L96.3361 30.6488C96.295 30.6559 96.2784 30.6851 96.2872 30.7361L97.1064 35.4795C97.1152 35.5305 97.1403 35.5529 97.1819 35.5458L101.172 34.8566C101.275 34.8388 101.338 34.8938 101.36 35.0218L101.5 35.8283C101.522 35.9563 101.481 36.0293 101.378 36.0471L97.3875 36.7362C97.3464 36.7433 97.3297 36.7725 97.3385 36.8235L98.1711 41.6439C98.1799 41.6949 98.2049 41.7174 98.2465 41.7102L103.938 40.7272C104.041 40.7093 104.104 40.7644 104.126 40.8924L104.266 41.6989C104.288 41.8269 104.247 41.8998 104.144 41.9177L97.447 43.0742C97.3438 43.0921 97.2811 43.037 97.259 42.909L95.0035 29.8497C94.9814 29.7217 95.022 29.6488 95.1253 29.6309L101.822 28.4743C101.925 28.4565 101.988 28.5116 102.01 28.6396L102.149 29.4461L102.15 29.4471ZM110.811 27.1206C110.789 26.9926 110.829 26.9198 110.932 26.902L111.721 26.7657C111.824 26.7479 111.887 26.8029 111.909 26.9309L114.165 39.9903C114.187 40.1183 114.146 40.1912 114.043 40.209L113.27 40.3426C113.197 40.3551 113.128 40.3207 113.061 40.2401L105.946 30.4927C105.929 30.4559 105.911 30.4426 105.892 30.4526C105.872 30.4628 105.865 30.487 105.872 30.525L107.715 41.1042C107.737 41.2322 107.697 41.3051 107.593 41.3229L106.804 41.4592C106.701 41.477 106.639 41.4219 106.617 41.2939L104.361 28.2345C104.339 28.1065 104.38 28.0336 104.483 28.0159L105.256 27.8823C105.328 27.8698 105.398 27.9042 105.465 27.9847L112.58 37.7322C112.597 37.7689 112.615 37.7823 112.635 37.7722C112.654 37.7621 112.661 37.7378 112.654 37.6998L110.811 27.1206ZM121.31 25.1096C121.414 25.0917 121.476 25.1468 121.499 25.2748L121.641 26.1008C121.663 26.2288 121.623 26.3017 121.519 26.3195L118.488 26.8431C118.447 26.8502 118.43 26.8793 118.439 26.9308L120.506 38.8956C120.528 39.0236 120.487 39.0966 120.384 39.1143L119.595 39.2506C119.492 39.2684 119.43 39.2133 119.408 39.0853L117.341 27.1204C117.333 27.0694 117.307 27.0471 117.266 27.0542L114.358 27.5564C114.255 27.5742 114.192 27.5191 114.17 27.3911L114.027 26.5652C114.005 26.4372 114.046 26.3642 114.149 26.3464L121.31 25.1096L121.31 25.1096ZM128.531 37.8649C127.798 37.9914 127.122 37.9172 126.501 37.6419C125.88 37.3666 125.359 36.9194 124.939 36.2994C124.519 35.68 124.233 34.9282 124.08 34.0447L123.244 29.2048C123.092 28.3213 123.109 27.5176 123.297 26.7925C123.486 26.068 123.826 25.4717 124.318 25.004C124.811 24.5369 125.423 24.2396 126.156 24.1131C126.888 23.9867 127.567 24.0604 128.193 24.3349C128.819 24.6093 129.342 25.056 129.763 25.676C130.183 26.2954 130.469 27.0471 130.622 27.9306L131.458 32.7706C131.61 33.6541 131.593 34.4578 131.405 35.1828C131.216 35.9074 130.873 36.5042 130.376 36.9727C129.878 37.4408 129.263 37.7385 128.531 37.8649ZM128.328 36.6934C129.112 36.5581 129.69 36.155 130.063 35.4841C130.435 34.8132 130.537 33.9912 130.369 33.0183L129.52 28.1018C129.352 27.1288 128.98 26.3853 128.403 25.8722C127.826 25.3586 127.145 25.1698 126.362 25.3051C125.588 25.4387 125.016 25.8439 124.644 26.5213C124.273 27.1987 124.171 28.0236 124.339 28.9966L125.189 33.913C125.357 34.886 125.729 35.6261 126.305 36.1332C126.88 36.6402 127.555 36.8269 128.328 36.6934ZM137.935 36.2408C136.77 36.442 135.793 36.2745 135.005 35.7381C134.217 35.2018 133.729 34.3896 133.541 33.3011L133.438 32.7056C133.416 32.5776 133.456 32.5047 133.559 32.487L134.317 32.3561C134.42 32.3382 134.483 32.3933 134.505 32.5213L134.594 33.0398C134.723 33.7823 135.073 34.3381 135.647 34.7071C136.221 35.076 136.946 35.1851 137.822 35.0337C138.616 34.8966 139.183 34.5845 139.524 34.0972C139.865 33.61 139.975 33.0204 139.856 32.3289C139.778 31.8809 139.617 31.5134 139.37 31.2258C139.125 30.9387 138.778 30.6886 138.333 30.4756C137.887 30.2627 137.272 30.0328 136.486 29.7859C135.646 29.5355 134.987 29.3027 134.509 29.0887C134.032 28.8745 133.622 28.5628 133.281 28.1537C132.94 27.7445 132.709 27.1943 132.589 26.5028C132.404 25.4273 132.561 24.5397 133.061 23.8406C133.562 23.1409 134.338 22.7005 135.39 22.5189C136.534 22.3212 137.494 22.4984 138.269 23.0499C139.044 23.6019 139.526 24.4279 139.716 25.5289L139.789 25.9514C139.811 26.0794 139.771 26.1523 139.668 26.1701L138.894 26.3037C138.791 26.3216 138.729 26.2664 138.706 26.1384L138.647 25.7929C138.519 25.0504 138.179 24.4829 137.628 24.09C137.077 23.6975 136.384 23.5732 135.549 23.7174C134.817 23.8438 134.287 24.1264 133.959 24.5655C133.632 25.0047 133.528 25.576 133.65 26.2805C133.73 26.7415 133.891 27.106 134.134 27.374C134.376 27.6421 134.695 27.8574 135.089 28.02C135.484 28.1825 136.083 28.3792 136.888 28.6095C137.707 28.8634 138.374 29.1173 138.891 29.371C139.407 29.6248 139.849 29.9671 140.215 30.3982C140.582 30.8292 140.824 31.3908 140.944 32.0818C141.129 33.1573 140.958 34.0705 140.429 34.8209C139.9 35.5718 139.069 36.0444 137.934 36.2403L137.935 36.2408Z" fill="white" stroke="white" stroke-width="0.288329" stroke-miterlimit="22.9256"/>
</g>
<defs>
<clipPath id="clip0_129_587">
<rect width="160.495" height="48.7217" fill="white" transform="translate(0.853394 27.9341) rotate(-9.79879)"/>
</clipPath>
</defs>
</svg>
